<svg width="121" height="122" viewBox="0 0 121 122" fill="none" xmlns="http://www.w3.org/2000/svg">
<circle cx="60.2115" cy="60.9774" r="60.2115" fill="white"/>
<path d="M87.4038 52.6753L73.3941 38.6746C73.1133 38.4117 72.677 38.4117 72.3961 38.6746L67.1895 43.8857C66.9167 44.1625 66.9167 44.6068 67.1895 44.8837L68.3192 46.0134L59.5635 49.8358L52.0975 46.4607L53.2366 45.3216C53.5095 45.0448 53.5095 44.6004 53.2366 44.3236L48.0255 39.1125C47.7492 38.8397 47.3044 38.8397 47.0275 39.1125L33.023 53.1171C32.7501 53.3939 32.7501 53.8382 33.023 54.1151L38.2341 59.3261C38.5109 59.599 38.9557 59.599 39.2321 59.3261L40.3856 58.1776L42.5838 63.0969C43.2523 64.6033 44.2081 65.2296 44.966 66.058L43.5257 67.4983H43.5252C42.9452 68.0778 42.6108 68.8585 42.5919 69.6787C42.5735 70.4987 42.8722 71.2939 43.4258 71.8988C43.9795 72.5041 44.7454 72.8719 45.564 72.9261C45.1917 73.9579 45.3781 75.1089 46.0565 75.9708C46.7354 76.8326 47.8109 77.2828 48.9013 77.1626C48.7845 78.2525 49.2358 79.3255 50.0961 80.0045C50.9569 80.6834 52.1055 80.8722 53.1383 80.5049C53.1919 81.3235 53.5597 82.0894 54.1651 82.6431C54.7699 83.1968 55.5657 83.4955 56.3852 83.4766C57.2052 83.4582 57.9865 83.1237 58.5656 82.5432L59.9776 81.1029L60.9189 82.0442H60.9194C61.5461 82.6725 62.4065 83.0104 63.2931 82.9766C64.1802 82.9433 65.0122 82.5407 65.5893 81.8668C66.1668 81.1929 66.4361 80.3082 66.3328 79.427C67.291 79.5294 68.2433 79.1929 68.9246 78.5115C69.6055 77.8306 69.942 76.8778 69.8401 75.9202C70.7978 76.022 71.7507 75.6856 72.4315 75.0047C73.1129 74.3233 73.4493 73.371 73.347 72.4128C74.2291 72.5137 75.1133 72.2423 75.7868 71.6638C76.4597 71.0853 76.8613 70.2518 76.8941 69.3647C76.9269 68.4776 76.5885 67.6168 75.9597 66.99L75.0184 66.0487L76.5721 64.5H76.5716C77.1024 63.9667 77.5313 63.3415 77.8379 62.6546L80.0361 57.7309L81.1897 58.8844V58.8839C81.4665 59.1568 81.9108 59.1568 82.1877 58.8839L87.3988 53.6728C87.6701 53.3965 87.6726 52.9537 87.4032 52.6748L87.4038 52.6753ZM38.7333 57.8536L34.4968 53.6171L47.5268 40.6101L51.7632 44.8466L38.7333 57.8536ZM44.519 68.4969C45.9876 67.0611 45.931 67.0139 46.3077 66.7926C47.0756 66.3384 48.0616 66.5287 48.6058 67.2354C49.1495 67.9427 49.0805 68.9442 48.4448 69.5699L47.0328 71.0102V71.0107C46.3295 71.6782 45.2267 71.6782 44.5233 71.0107C44.1889 70.6782 44.0005 70.2264 43.9995 69.7548C43.9985 69.2831 44.1854 68.8303 44.5189 68.4968L44.519 68.4969ZM47.3056 75.2283C46.9736 74.8963 46.7868 74.446 46.7868 73.9763C46.7868 73.5067 46.9736 73.0559 47.3056 72.7239L50.1817 69.8478C50.8755 69.1788 51.9764 69.1858 52.6618 69.8632C53.3471 70.5411 53.366 71.6415 52.705 72.3427L49.8289 75.2188C49.1296 75.9047 48.0124 75.9106 47.3056 75.2332L47.3056 75.2283ZM50.7986 78.7402C50.4651 78.4087 50.2777 77.9584 50.2777 77.4882C50.2777 77.0181 50.4651 76.5673 50.7986 76.2358L53.6747 73.3597C54.3789 72.728 55.4549 72.7598 56.121 73.4317C56.7865 74.1037 56.8083 75.1802 56.1697 75.878L53.2936 78.7542V78.7546C52.5908 79.4142 51.4944 79.4077 50.7987 78.7402L50.7986 78.7402ZM57.5349 81.5318C57.1959 81.8524 56.7472 82.0308 56.2805 82.0308C55.8138 82.0308 55.365 81.8524 55.026 81.5318C54.692 81.1998 54.5047 80.748 54.5047 80.2774C54.5047 79.8062 54.692 79.3549 55.026 79.0224C56.4381 77.6622 56.4902 77.4782 56.8808 77.2714H56.8803C57.5687 76.9066 58.4141 77.0334 58.9653 77.5836C59.5165 78.1337 59.6447 78.9787 59.2814 79.6675C59.1025 80.0442 58.9285 80.1148 57.5489 81.5317L57.5349 81.5318ZM74.9519 70.4978V70.4973C74.2506 71.1702 73.1437 71.1702 72.4429 70.4973L67.8153 65.8697V65.8702C67.54 65.5904 67.0897 65.5874 66.8104 65.8632C66.5311 66.1386 66.5276 66.5883 66.8035 66.8682L71.4355 71.5002C71.7675 71.8322 71.9544 72.2825 71.9544 72.7521C71.9544 73.2218 71.7675 73.6726 71.4355 74.0046C70.7342 74.6771 69.6274 74.6771 68.9261 74.0046L64.2985 69.377H64.299C64.0152 69.1613 63.6151 69.1911 63.3661 69.4461C63.1176 69.7011 63.0972 70.1011 63.3199 70.38L67.9475 75.0076L67.947 75.0071C68.6398 75.7004 68.6398 76.8231 67.947 77.5165C67.2452 78.1864 66.1404 78.1864 65.4381 77.5165L60.8105 72.8889C60.6798 72.7487 60.4979 72.6677 60.3065 72.6642C60.1147 72.6608 59.9303 72.7353 59.7946 72.871C59.6594 73.0062 59.5849 73.1911 59.5879 73.3829C59.5913 73.5742 59.6724 73.7562 59.8125 73.8869L64.4495 78.5095C65.1135 79.2073 65.1006 80.3072 64.4192 80.9885C63.7383 81.6694 62.6379 81.6828 61.9402 81.0183L60.7633 79.8414L60.7638 79.8419C61.0779 78.9051 60.9372 77.8753 60.3831 77.0577C59.8294 76.2396 58.9254 75.7267 57.9393 75.6711C58.3121 74.6383 58.1252 73.4862 57.4453 72.624C56.7649 71.7622 55.6879 71.312 54.5969 71.4341C54.7172 70.3482 54.2709 69.2761 53.415 68.5967C52.5592 67.9168 51.4146 67.7245 50.3838 68.0873C50.3272 67.0983 49.8123 66.1922 48.9908 65.6381C48.1697 65.0839 47.137 64.9452 46.1986 65.2628C45.1345 64.1187 44.4049 63.6903 43.8448 62.4856L41.4537 57.105L51.0335 47.5297L57.8216 50.6086C56.5945 51.0385 55.5821 51.9282 54.9972 53.0892L52.0265 59.2088C51.4113 60.3251 51.4212 61.681 52.0524 62.7878C52.6841 63.8946 53.8461 64.5929 55.1198 64.6311C56.3937 64.6694 57.5954 64.0422 58.2923 62.975C58.3107 62.9467 58.3266 62.9169 58.3395 62.8856L60.3588 58.178L65.2359 58.2535L74.9613 67.9928C75.2938 68.3248 75.4802 68.7756 75.4802 69.2453C75.4802 69.7149 75.2938 70.1652 74.9613 70.4972L74.9519 70.4978ZM76.5428 62.081V62.0805C76.3062 62.6074 75.9742 63.086 75.5637 63.4931L74.015 65.0418L67.2319 58.2632H71.299C71.6891 58.2632 72.0052 57.9471 72.0052 57.5569C72.0052 57.1668 71.6891 56.8507 71.299 56.8507L59.8977 56.7612C59.6124 56.7612 59.354 56.9292 59.2387 57.1896L57.0544 62.2785C56.612 62.9211 55.8685 63.2889 55.0892 63.2501C54.3099 63.2113 53.6067 62.772 53.23 62.0886C52.8533 61.4052 52.8577 60.5757 53.2414 59.8964C53.2538 59.879 53.2653 59.8601 53.2742 59.8402L56.2587 53.7205C56.6046 53.0059 57.1936 52.4383 57.9206 52.1197L69.3925 47.0831L78.9722 56.6673L76.5428 62.081ZM81.6832 57.3734L68.6864 44.3855L72.9229 40.149L85.9299 53.156L81.6832 57.3734Z" fill="#1363DF"/>
</svg>
