<svg width="117" height="116" viewBox="0 0 117 116" fill="none" xmlns="http://www.w3.org/2000/svg">
<rect x="0.966187" width="115.254" height="115.581" rx="8" fill="#F5F5F5"/>
<path d="M59.4147 22.0967C58.4152 22.0904 57.4162 22.155 56.4257 22.2903C50.8061 23.0088 45.6411 25.7604 41.9026 30.0283C38.1631 34.2962 36.1065 39.7862 36.1188 45.4671C36.1183 51.1439 38.1779 56.6257 41.9136 60.8917C45.6489 65.1565 50.8048 67.9124 56.4182 68.6446C57.4113 68.7794 58.4128 68.8441 59.4153 68.8381C65.5962 68.8381 71.5242 66.3758 75.8943 61.9931C80.2646 57.61 82.72 51.6656 82.72 45.4674C82.72 39.2695 80.2647 33.3253 75.8943 28.9418C71.5236 24.5591 65.596 22.0967 59.4153 22.0967L59.4147 22.0967ZM59.4147 67.2259C58.4822 67.2323 57.5507 67.1732 56.6263 67.0485C51.4037 66.3576 46.6088 63.7885 43.1327 59.8193C39.6562 55.8498 37.735 50.7498 37.726 45.4664C37.7095 40.1729 39.6241 35.0563 43.1082 31.0797C46.5923 27.1028 51.4059 24.5414 56.643 23.8764C57.5618 23.7543 58.4883 23.6977 59.4152 23.7075C65.1697 23.7075 70.689 25.9997 74.7582 30.0804C78.8269 34.161 81.1131 39.6953 81.1131 45.4658C81.1131 51.2362 78.8269 56.7715 74.7582 60.8522C70.6891 64.9325 65.17 67.2251 59.4152 67.2251L59.4147 67.2259Z" fill="#1363DF"/>
<path d="M72.9875 39.7213H65.1523V31.8638C65.1523 31.6502 65.0674 31.4452 64.9168 31.2942C64.7662 31.1427 64.5618 31.058 64.3488 31.058H54.4802C54.0365 31.058 53.6767 31.4188 53.6767 31.8638V39.7213H45.8736C45.4299 39.7213 45.0701 40.082 45.0701 40.527V50.3993C45.0701 50.6128 45.1545 50.8179 45.3056 50.9689C45.4562 51.1199 45.6606 51.205 45.8736 51.205H53.6767V59.0625C53.6767 59.2761 53.7616 59.4811 53.9122 59.6321C54.0628 59.7832 54.2673 59.8682 54.4802 59.8682H64.3488C64.5618 59.8682 64.7662 59.7832 64.9168 59.6321C65.0674 59.4811 65.1523 59.2761 65.1523 59.0625V51.205H72.9876C73.2005 51.205 73.405 51.1199 73.5556 50.9689C73.7062 50.8179 73.791 50.6128 73.791 50.3993V40.527C73.791 40.3134 73.7062 40.1084 73.5556 39.9574C73.405 39.8059 73.2005 39.7213 72.9876 39.7213L72.9875 39.7213ZM72.1841 49.5932H64.3488C63.9046 49.5932 63.5449 49.954 63.5449 50.3994V58.2569L55.2841 58.2564V50.3993C55.2841 50.1853 55.1993 49.9802 55.0487 49.8292C54.8977 49.6782 54.6936 49.5931 54.4802 49.5931H46.6771V41.3327H54.4802C54.6936 41.3327 54.8977 41.248 55.0487 41.097C55.1993 40.9455 55.2841 40.7409 55.2841 40.5269V32.6694H63.5449V40.5269C63.5449 40.7409 63.6298 40.9455 63.7804 41.097C63.931 41.248 64.1354 41.3327 64.3488 41.3327H72.1841L72.1841 49.5932Z" fill="#1363DF"/>
<path d="M12.3713 91.9825C11.6993 91.9825 11.0953 91.8585 10.5593 91.6105C10.0233 91.3625 9.62329 91.0465 9.35929 90.6625L9.94729 90.0265C10.1873 90.3465 10.5233 90.6065 10.9553 90.8065C11.3953 90.9985 11.8593 91.0945 12.3473 91.0945C12.9713 91.0945 13.4633 90.9625 13.8233 90.6985C14.1833 90.4265 14.3633 90.0585 14.3633 89.5945C14.3633 89.1145 14.1753 88.7585 13.7993 88.5265C13.4313 88.2945 12.9273 88.1785 12.2873 88.1785H10.6553V87.2905H12.2873C12.8553 87.2905 13.3193 87.1825 13.6793 86.9665C14.0473 86.7425 14.2313 86.4105 14.2313 85.9705C14.2313 85.5385 14.0473 85.2025 13.6793 84.9625C13.3193 84.7225 12.8633 84.6025 12.3113 84.6025C11.4073 84.6025 10.6513 84.9265 10.0433 85.5745L9.49129 84.9505C9.81129 84.5825 10.2193 84.2865 10.7153 84.0625C11.2193 83.8305 11.7753 83.7145 12.3833 83.7145C13.1993 83.7145 13.8793 83.9065 14.4233 84.2905C14.9753 84.6745 15.2513 85.1945 15.2513 85.8505C15.2513 86.3785 15.0713 86.8025 14.7113 87.1225C14.3593 87.4345 13.9633 87.6305 13.5233 87.7105C13.9633 87.7505 14.3793 87.9425 14.7713 88.2865C15.1713 88.6305 15.3713 89.0945 15.3713 89.6785C15.3713 90.3505 15.0953 90.9025 14.5433 91.3345C13.9913 91.7665 13.2673 91.9825 12.3713 91.9825ZM16.1179 93.3145V91.0945C16.4139 91.0385 16.6459 90.8625 16.8139 90.5665C16.9819 90.2625 17.1179 89.7065 17.2219 88.8985L17.5939 86.0425H21.6259V91.0465H22.2979V93.3145H21.3979V91.8385H17.0179V93.3145H16.1179ZM18.3859 86.8345L18.1219 89.0065C17.9859 90.0225 17.7059 90.7025 17.2819 91.0465H20.7259V86.8345H18.3859ZM26.3845 91.9825C25.5685 91.9825 24.9165 91.6425 24.4285 90.9625V94.0465H23.5285V86.0425H24.4285V86.9065C24.6445 86.6025 24.9245 86.3585 25.2685 86.1745C25.6125 85.9905 25.9845 85.8985 26.3845 85.8985C27.1525 85.8985 27.7725 86.1745 28.2445 86.7265C28.7245 87.2705 28.9645 88.0065 28.9645 88.9345C28.9645 89.8625 28.7245 90.6025 28.2445 91.1545C27.7725 91.7065 27.1525 91.9825 26.3845 91.9825ZM26.1565 91.1785C26.7245 91.1785 27.1765 90.9705 27.5125 90.5545C27.8485 90.1305 28.0165 89.5905 28.0165 88.9345C28.0165 88.2785 27.8485 87.7425 27.5125 87.3265C27.1765 86.9105 26.7245 86.7025 26.1565 86.7025C25.8125 86.7025 25.4765 86.7945 25.1485 86.9785C24.8285 87.1545 24.5885 87.3705 24.4285 87.6265V90.2425C24.5885 90.5065 24.8285 90.7305 25.1485 90.9145C25.4765 91.0905 25.8125 91.1785 26.1565 91.1785ZM34.9197 91.8385H34.0197V91.1785C33.5317 91.7145 32.8917 91.9825 32.0997 91.9825C31.5637 91.9825 31.0917 91.8105 30.6837 91.4665C30.2757 91.1225 30.0717 90.6545 30.0717 90.0625C30.0717 89.4545 30.2717 88.9865 30.6717 88.6585C31.0797 88.3225 31.5557 88.1545 32.0997 88.1545C32.9237 88.1545 33.5637 88.4185 34.0197 88.9465V87.9025C34.0197 87.5185 33.8837 87.2185 33.6117 87.0025C33.3397 86.7865 32.9877 86.6785 32.5557 86.6785C31.8757 86.6785 31.2837 86.9465 30.7797 87.4825L30.3597 86.8585C30.9757 86.2185 31.7477 85.8985 32.6757 85.8985C33.3397 85.8985 33.8797 86.0585 34.2957 86.3785C34.7117 86.6985 34.9197 87.1905 34.9197 87.8545V91.8385ZM32.4237 91.3345C33.1437 91.3345 33.6757 91.0945 34.0197 90.6145V89.5225C33.6757 89.0425 33.1437 88.8025 32.4237 88.8025C32.0077 88.8025 31.6637 88.9225 31.3917 89.1625C31.1277 89.3945 30.9957 89.6985 30.9957 90.0745C30.9957 90.4425 31.1277 90.7465 31.3917 90.9865C31.6637 91.2185 32.0077 91.3345 32.4237 91.3345ZM39.9758 91.8385H36.7238V86.0425H39.9158C40.4198 86.0425 40.8158 86.1785 41.1038 86.4505C41.3998 86.7225 41.5478 87.0825 41.5478 87.5305C41.5478 87.8585 41.4558 88.1425 41.2718 88.3825C41.0958 88.6145 40.8758 88.7705 40.6118 88.8505C40.9078 88.9225 41.1558 89.0945 41.3558 89.3665C41.5638 89.6385 41.6678 89.9385 41.6678 90.2665C41.6678 90.7385 41.5158 91.1185 41.2118 91.4065C40.9158 91.6945 40.5038 91.8385 39.9758 91.8385ZM39.7958 91.0465C40.0838 91.0465 40.3118 90.9665 40.4798 90.8065C40.6478 90.6465 40.7318 90.4305 40.7318 90.1585C40.7318 89.9105 40.6478 89.6985 40.4798 89.5225C40.3118 89.3465 40.0838 89.2585 39.7958 89.2585H37.6238V91.0465H39.7958ZM39.7598 88.4665C40.0318 88.4665 40.2438 88.3945 40.3958 88.2505C40.5478 88.0985 40.6238 87.9025 40.6238 87.6625C40.6238 87.4065 40.5478 87.2065 40.3958 87.0625C40.2438 86.9105 40.0318 86.8345 39.7598 86.8345H37.6238V88.4665H39.7598ZM47.9763 91.1065C47.4563 91.6905 46.7643 91.9825 45.9003 91.9825C45.0363 91.9825 44.3403 91.6905 43.8123 91.1065C43.2923 90.5225 43.0323 89.7985 43.0323 88.9345C43.0323 88.0705 43.2923 87.3505 43.8123 86.7745C44.3403 86.1905 45.0363 85.8985 45.9003 85.8985C46.7643 85.8985 47.4563 86.1905 47.9763 86.7745C48.5043 87.3505 48.7683 88.0705 48.7683 88.9345C48.7683 89.7985 48.5043 90.5225 47.9763 91.1065ZM44.4843 90.5305C44.8363 90.9625 45.3083 91.1785 45.9003 91.1785C46.4923 91.1785 46.9603 90.9625 47.3043 90.5305C47.6483 90.0905 47.8203 89.5585 47.8203 88.9345C47.8203 88.3105 47.6483 87.7825 47.3043 87.3505C46.9603 86.9185 46.4923 86.7025 45.9003 86.7025C45.3083 86.7025 44.8363 86.9225 44.4843 87.3625C44.1403 87.7945 43.9683 88.3185 43.9683 88.9345C43.9683 89.5585 44.1403 90.0905 44.4843 90.5305ZM54.8435 91.1065C54.3235 91.6905 53.6315 91.9825 52.7675 91.9825C51.9035 91.9825 51.2075 91.6905 50.6795 91.1065C50.1595 90.5225 49.8995 89.7985 49.8995 88.9345C49.8995 88.0705 50.1595 87.3505 50.6795 86.7745C51.2075 86.1905 51.9035 85.8985 52.7675 85.8985C53.6315 85.8985 54.3235 86.1905 54.8435 86.7745C55.3715 87.3505 55.6355 88.0705 55.6355 88.9345C55.6355 89.7985 55.3715 90.5225 54.8435 91.1065ZM51.3515 90.5305C51.7035 90.9625 52.1755 91.1785 52.7675 91.1785C53.3595 91.1785 53.8275 90.9625 54.1715 90.5305C54.5155 90.0905 54.6875 89.5585 54.6875 88.9345C54.6875 88.3105 54.5155 87.7825 54.1715 87.3505C53.8275 86.9185 53.3595 86.7025 52.7675 86.7025C52.1755 86.7025 51.7035 86.9225 51.3515 87.3625C51.0075 87.7945 50.8355 88.3185 50.8355 88.9345C50.8355 89.5585 51.0075 90.0905 51.3515 90.5305ZM61.4574 91.8385H60.4134L58.6734 89.4625L56.9334 91.8385H55.9014L58.1214 88.8625L56.0214 86.0425H57.0654L58.6734 88.2505L60.2814 86.0425H61.3254L59.2254 88.8625L61.4574 91.8385ZM65.3493 91.9825C64.5333 91.9825 63.8813 91.6425 63.3933 90.9625V94.0465H62.4933V86.0425H63.3933V86.9065C63.6093 86.6025 63.8893 86.3585 64.2333 86.1745C64.5773 85.9905 64.9493 85.8985 65.3493 85.8985C66.1173 85.8985 66.7373 86.1745 67.2093 86.7265C67.6893 87.2705 67.9293 88.0065 67.9293 88.9345C67.9293 89.8625 67.6893 90.6025 67.2093 91.1545C66.7373 91.7065 66.1173 91.9825 65.3493 91.9825ZM65.1213 91.1785C65.6893 91.1785 66.1413 90.9705 66.4773 90.5545C66.8133 90.1305 66.9813 89.5905 66.9813 88.9345C66.9813 88.2785 66.8133 87.7425 66.4773 87.3265C66.1413 86.9105 65.6893 86.7025 65.1213 86.7025C64.7773 86.7025 64.4413 86.7945 64.1133 86.9785C63.7933 87.1545 63.5533 87.3705 63.3933 87.6265V90.2425C63.5533 90.5065 63.7933 90.7305 64.1133 90.9145C64.4413 91.0905 64.7773 91.1785 65.1213 91.1785ZM73.8845 91.8385H72.9845V91.1785C72.4965 91.7145 71.8565 91.9825 71.0645 91.9825C70.5285 91.9825 70.0565 91.8105 69.6485 91.4665C69.2405 91.1225 69.0365 90.6545 69.0365 90.0625C69.0365 89.4545 69.2365 88.9865 69.6365 88.6585C70.0445 88.3225 70.5205 88.1545 71.0645 88.1545C71.8885 88.1545 72.5285 88.4185 72.9845 88.9465V87.9025C72.9845 87.5185 72.8485 87.2185 72.5765 87.0025C72.3045 86.7865 71.9525 86.6785 71.5205 86.6785C70.8405 86.6785 70.2485 86.9465 69.7445 87.4825L69.3245 86.8585C69.9405 86.2185 70.7125 85.8985 71.6405 85.8985C72.3045 85.8985 72.8445 86.0585 73.2605 86.3785C73.6765 86.6985 73.8845 87.1905 73.8845 87.8545V91.8385ZM71.3885 91.3345C72.1085 91.3345 72.6405 91.0945 72.9845 90.6145V89.5225C72.6405 89.0425 72.1085 88.8025 71.3885 88.8025C70.9725 88.8025 70.6285 88.9225 70.3565 89.1625C70.0925 89.3945 69.9605 89.6985 69.9605 90.0745C69.9605 90.4425 70.0925 90.7465 70.3565 90.9865C70.6285 91.2185 70.9725 91.3345 71.3885 91.3345ZM76.5886 91.8385H75.6886V86.0425H76.5886V88.4545H79.6126V86.0425H80.5126V91.8385H79.6126V89.2465H76.5886V91.8385ZM84.9257 91.9825C84.0617 91.9825 83.3537 91.7025 82.8017 91.1425C82.2497 90.5745 81.9737 89.8385 81.9737 88.9345C81.9737 88.0865 82.2457 87.3705 82.7897 86.7865C83.3337 86.1945 84.0137 85.8985 84.8297 85.8985C85.6857 85.8985 86.3617 86.1945 86.8577 86.7865C87.3617 87.3705 87.6137 88.1105 87.6137 89.0065V89.2345H82.9217C82.9617 89.8025 83.1697 90.2785 83.5457 90.6625C83.9217 91.0465 84.4097 91.2385 85.0097 91.2385C85.7297 91.2385 86.3257 90.9945 86.7977 90.5065L87.2297 91.0945C86.6377 91.6865 85.8697 91.9825 84.9257 91.9825ZM86.7257 88.5745C86.7177 88.0785 86.5497 87.6345 86.2217 87.2425C85.8937 86.8425 85.4257 86.6425 84.8177 86.6425C84.2417 86.6425 83.7857 86.8385 83.4497 87.2305C83.1217 87.6225 82.9457 88.0705 82.9217 88.5745H86.7257ZM89.9714 91.8385H89.0714V86.0425H89.9714V88.4545H92.9954V86.0425H93.8954V91.8385H92.9954V89.2465H89.9714V91.8385ZM96.5565 91.8385H95.6925V86.0425H96.5925V90.4705L99.6285 86.0425H100.517V91.8385H99.6165V87.3265L96.5565 91.8385ZM104.93 91.9825C104.066 91.9825 103.358 91.7025 102.806 91.1425C102.254 90.5745 101.978 89.8385 101.978 88.9345C101.978 88.0865 102.25 87.3705 102.794 86.7865C103.338 86.1945 104.018 85.8985 104.834 85.8985C105.69 85.8985 106.366 86.1945 106.862 86.7865C107.366 87.3705 107.618 88.1105 107.618 89.0065V89.2345H102.926C102.966 89.8025 103.174 90.2785 103.55 90.6625C103.926 91.0465 104.414 91.2385 105.014 91.2385C105.734 91.2385 106.33 90.9945 106.802 90.5065L107.234 91.0945C106.642 91.6865 105.874 91.9825 104.93 91.9825ZM106.73 88.5745C106.722 88.0785 106.554 87.6345 106.226 87.2425C105.898 86.8425 105.43 86.6425 104.822 86.6425C104.246 86.6425 103.79 86.8385 103.454 87.2305C103.126 87.6225 102.95 88.0705 102.926 88.5745H106.73Z" fill="black"/>
</svg>
