<svg width="121" height="122" viewBox="0 0 121 122" fill="none" xmlns="http://www.w3.org/2000/svg">
<circle cx="60.2115" cy="60.9774" r="60.2115" fill="white"/>
<path d="M60.2116 59.3917C64.4684 59.3917 67.9198 62.8431 67.9198 67.0999C67.9198 68.9073 67.2973 70.5693 66.2554 71.8837H78.3751C80.4842 71.8837 82.2061 70.1617 82.2061 68.0527V44.201C82.2061 42.0919 80.4838 40.37 78.3751 40.37H42.0468C39.9377 40.37 38.2158 42.0919 38.2158 44.201V68.0527C38.2158 70.1617 39.9377 71.8837 42.0468 71.8837H54.1664C53.1245 70.5692 52.5021 68.9072 52.5021 67.0999C52.5021 62.8431 55.9535 59.3917 60.2103 59.3917H60.2116ZM60.2116 62.9642C62.4952 62.9642 64.3474 64.8163 64.3474 67.1C64.3474 69.3836 62.4953 71.2358 60.2116 71.2358C57.9278 71.2358 56.0757 69.3837 56.0757 67.1C56.0757 64.8164 57.9278 62.9642 60.2116 62.9642ZM60.2116 64.8563C58.9723 64.8563 57.9678 65.8607 57.9678 67.1C57.9678 68.3393 58.9722 69.3437 60.2116 69.3437C61.4509 69.3437 62.4553 68.3394 62.4553 67.1C62.4553 65.8607 61.4509 64.8563 60.2116 64.8563ZM49.5933 55.723C48.3476 55.723 48.3476 53.8309 49.5933 53.8309H70.8298C72.0756 53.8309 72.0756 55.723 70.8298 55.723H49.5933ZM45.4987 51.5912C44.2529 51.5912 44.2529 49.6991 45.4987 49.6991H74.9244C76.1702 49.6991 76.1702 51.5912 74.9244 51.5912H45.4987ZM45.4987 47.4595C44.2529 47.4595 44.2529 45.5674 45.4987 45.5674H74.9244C76.1702 45.5674 76.1702 47.4595 74.9244 47.4595H45.4987ZM65.7523 73.7761V82.5318C65.7523 83.3808 64.7248 83.7887 64.1375 83.2006L60.2115 79.941L56.2187 83.2553C55.5999 83.7699 54.6738 83.3144 54.6745 82.531L54.6702 73.7753H42.0473C38.8939 73.7753 36.3242 71.2056 36.3242 68.0522V44.2005C36.3242 41.0471 38.8943 38.4774 42.0473 38.4774H78.3756C81.5286 38.4774 84.0987 41.0471 84.0987 44.2005V68.0522C84.0987 71.2056 81.529 73.7753 78.3756 73.7753H65.7517L65.7523 73.7761ZM63.8602 73.8915C62.774 74.4764 61.5314 74.8084 60.2115 74.8084C58.8915 74.8084 57.6489 74.4764 56.5627 73.8915V80.5223L59.6006 78.0006C59.9429 77.7081 60.4563 77.6957 60.8143 77.9934L63.8606 80.5227V73.8923L63.8602 73.8915ZM66.0276 67.1002C66.0276 63.8877 63.4239 61.2841 60.2115 61.2841C56.999 61.2841 54.3953 63.8877 54.3953 67.1002C54.3953 70.3167 57.0042 72.9163 60.2115 72.9163C63.4191 72.9163 66.0276 70.3171 66.0276 67.1002Z" fill="#1363DF"/>
</svg>
