<svg width="116" height="116" viewBox="0 0 116 116" fill="none" xmlns="http://www.w3.org/2000/svg">
<rect x="0.593262" width="115.254" height="115.581" rx="8" fill="#F5F5F5"/>
<path d="M51.3039 25.99C57.6628 23.6936 64.7295 24.7244 70.1634 28.5435L68.8336 28.5443C68.0943 28.5443 67.4957 29.1461 67.4957 29.8874C67.4957 30.6296 68.0958 31.2306 68.8358 31.2306L73.8349 31.2299C74.5742 31.2299 75.1728 30.6281 75.1728 29.8867L75.1736 24.6255C75.1736 23.8841 74.5734 23.2823 73.8342 23.2823C73.0949 23.2823 72.4948 23.8841 72.4948 24.6255L72.4933 26.9381C66.2588 22.1502 57.8948 20.7553 50.3952 23.4638C44.5355 25.5801 39.848 29.8593 37.1964 35.5118C34.5441 41.1636 34.248 47.5133 36.3591 53.3905C36.5557 53.9376 37.0704 54.2773 37.6175 54.2773C37.7692 54.2773 37.9216 54.2522 38.0719 54.1976C38.767 53.9472 39.1285 53.1763 38.8781 52.4785C37.0086 47.277 37.2722 41.657 39.6189 36.6534C41.9671 31.6513 46.1156 27.864 51.3022 25.9899L51.3039 25.99ZM80.2389 37.5397C79.9878 36.8427 79.2205 36.4801 78.5247 36.7319C77.8296 36.9822 77.468 37.7531 77.7191 38.451C79.5887 43.6525 79.3251 49.2725 76.9784 54.2753C74.6317 59.2789 70.4839 63.0655 65.2963 64.9396C58.9448 67.2339 51.8877 66.2052 46.4558 62.3987H47.7532C48.4932 62.3987 49.0926 61.7969 49.0926 61.0555C49.0926 60.3142 48.494 59.7124 47.7532 59.7124H42.7549C42.0149 59.7124 41.4155 60.3142 41.4155 61.0555L41.4148 66.316C41.4148 67.0574 42.0149 67.6592 42.7542 67.6592C43.4935 67.6592 44.0936 67.0574 44.0936 66.316L44.0943 63.996C48.2046 67.1527 53.2381 68.8385 58.3454 68.8385C60.9867 68.8385 63.6463 68.3903 66.2037 67.4658C72.0634 65.3496 76.7516 61.0704 79.4025 55.4186C82.0533 49.7653 82.3509 43.4163 80.239 37.54L80.2389 37.5397ZM59.1964 31.1878C58.6928 30.7395 57.9358 30.7321 57.427 31.1767C56.9948 31.5533 46.8349 40.4956 46.8349 47.7889C46.8349 54.1298 51.9804 59.2891 58.3062 59.2891C64.6268 59.2891 69.7688 54.1298 69.7688 47.7889C69.768 40.7199 59.6272 31.574 59.1965 31.1878L59.1964 31.1878ZM58.3054 56.6036C53.4559 56.6036 49.5122 52.6493 49.5122 47.789C49.5122 43.2359 55.2114 36.921 58.2945 34.0123C61.3782 36.9772 67.0892 43.3785 67.0892 47.789C67.09 52.6493 63.1499 56.6036 58.3054 56.6036ZM53.9339 47.7883C53.9339 47.0469 53.3353 46.4451 52.5945 46.4451C51.8552 46.4451 51.2551 47.0469 51.2551 47.7883C51.2551 51.6841 54.4155 54.8535 58.2996 54.8535C59.0396 54.8535 59.639 54.2517 59.639 53.5103C59.639 52.7689 59.0404 52.1671 58.2996 52.1671C55.8939 52.1671 53.9339 50.2028 53.9339 47.7883Z" fill="#1363DF"/>
<path d="M17.2302 91.8385H13.5822V83.8345H17.1462C17.8342 83.8345 18.3782 84.0225 18.7782 84.3985C19.1862 84.7745 19.3902 85.2665 19.3902 85.8745C19.3902 86.3545 19.2542 86.7625 18.9822 87.0985C18.7102 87.4265 18.3782 87.6305 17.9862 87.7105C18.4102 87.7745 18.7742 87.9985 19.0782 88.3825C19.3902 88.7665 19.5462 89.1985 19.5462 89.6785C19.5462 90.3265 19.3382 90.8505 18.9222 91.2505C18.5142 91.6425 17.9502 91.8385 17.2302 91.8385ZM16.9782 87.3025C17.4182 87.3025 17.7582 87.1825 17.9982 86.9425C18.2382 86.7025 18.3582 86.3945 18.3582 86.0185C18.3582 85.6425 18.2342 85.3345 17.9862 85.0945C17.7462 84.8465 17.4102 84.7225 16.9782 84.7225H14.5782V87.3025H16.9782ZM17.0262 90.9505C17.4902 90.9505 17.8542 90.8265 18.1182 90.5785C18.3822 90.3305 18.5142 89.9945 18.5142 89.5705C18.5142 89.1785 18.3822 88.8505 18.1182 88.5865C17.8622 88.3225 17.4982 88.1905 17.0262 88.1905H14.5782V90.9505H17.0262ZM25.7011 91.1065C25.1811 91.6905 24.4891 91.9825 23.6251 91.9825C22.7611 91.9825 22.0651 91.6905 21.5371 91.1065C21.0171 90.5225 20.7571 89.7985 20.7571 88.9345C20.7571 88.0705 21.0171 87.3505 21.5371 86.7745C22.0651 86.1905 22.7611 85.8985 23.6251 85.8985C24.4891 85.8985 25.1811 86.1905 25.7011 86.7745C26.2291 87.3505 26.4931 88.0705 26.4931 88.9345C26.4931 89.7985 26.2291 90.5225 25.7011 91.1065ZM22.2091 90.5305C22.5611 90.9625 23.0331 91.1785 23.6251 91.1785C24.2171 91.1785 24.6851 90.9625 25.0291 90.5305C25.3731 90.0905 25.5451 89.5585 25.5451 88.9345C25.5451 88.3105 25.3731 87.7825 25.0291 87.3505C24.6851 86.9185 24.2171 86.7025 23.6251 86.7025C23.0331 86.7025 22.5611 86.9225 22.2091 87.3625C21.8651 87.7945 21.6931 88.3185 21.6931 88.9345C21.6931 89.5585 21.8651 90.0905 22.2091 90.5305ZM27.2762 93.3145V91.0945C27.5722 91.0385 27.8042 90.8625 27.9722 90.5665C28.1402 90.2625 28.2762 89.7065 28.3802 88.8985L28.7522 86.0425H32.7842V91.0465H33.4562V93.3145H32.5562V91.8385H28.1762V93.3145H27.2762ZM29.5442 86.8345L29.2802 89.0065C29.1442 90.0225 28.8642 90.7025 28.4402 91.0465H31.8842V86.8345H29.5442ZM39.2948 91.1065C38.7748 91.6905 38.0828 91.9825 37.2188 91.9825C36.3548 91.9825 35.6588 91.6905 35.1308 91.1065C34.6108 90.5225 34.3508 89.7985 34.3508 88.9345C34.3508 88.0705 34.6108 87.3505 35.1308 86.7745C35.6588 86.1905 36.3548 85.8985 37.2188 85.8985C38.0828 85.8985 38.7748 86.1905 39.2948 86.7745C39.8228 87.3505 40.0868 88.0705 40.0868 88.9345C40.0868 89.7985 39.8228 90.5225 39.2948 91.1065ZM35.8028 90.5305C36.1548 90.9625 36.6268 91.1785 37.2188 91.1785C37.8108 91.1785 38.2788 90.9625 38.6228 90.5305C38.9668 90.0905 39.1388 89.5585 39.1388 88.9345C39.1388 88.3105 38.9668 87.7825 38.6228 87.3505C38.2788 86.9185 37.8108 86.7025 37.2188 86.7025C36.6268 86.7025 36.1548 86.9225 35.8028 87.3625C35.4588 87.7945 35.2868 88.3185 35.2868 88.9345C35.2868 89.5585 35.4588 90.0905 35.8028 90.5305ZM46.378 91.8385H45.478V86.8345H42.454V91.8385H41.554V86.0425H46.378V91.8385ZM52.7831 91.1065C52.2631 91.6905 51.5711 91.9825 50.7071 91.9825C49.8431 91.9825 49.1471 91.6905 48.6191 91.1065C48.0991 90.5225 47.8391 89.7985 47.8391 88.9345C47.8391 88.0705 48.0991 87.3505 48.6191 86.7745C49.1471 86.1905 49.8431 85.8985 50.7071 85.8985C51.5711 85.8985 52.2631 86.1905 52.7831 86.7745C53.3111 87.3505 53.5751 88.0705 53.5751 88.9345C53.5751 89.7985 53.3111 90.5225 52.7831 91.1065ZM49.2911 90.5305C49.6431 90.9625 50.1151 91.1785 50.7071 91.1785C51.2991 91.1785 51.7671 90.9625 52.1111 90.5305C52.4551 90.0905 52.6271 89.5585 52.6271 88.9345C52.6271 88.3105 52.4551 87.7825 52.1111 87.3505C51.7671 86.9185 51.2991 86.7025 50.7071 86.7025C50.1151 86.7025 49.6431 86.9225 49.2911 87.3625C48.9471 87.7945 48.7751 88.3185 48.7751 88.9345C48.7751 89.5585 48.9471 90.0905 49.2911 90.5305ZM54.3583 93.3145V91.0945C54.6543 91.0385 54.8863 90.8625 55.0543 90.5665C55.2223 90.2625 55.3583 89.7065 55.4623 88.8985L55.8343 86.0425H59.8663V91.0465H60.5383V93.3145H59.6383V91.8385H55.2583V93.3145H54.3583ZM56.6263 86.8345L56.3623 89.0065C56.2263 90.0225 55.9463 90.7025 55.5223 91.0465H58.9663V86.8345H56.6263ZM65.8248 86.0425V86.8345H62.6688V91.8385H61.7688V86.0425H65.8248ZM71.6034 91.1065C71.0834 91.6905 70.3914 91.9825 69.5274 91.9825C68.6634 91.9825 67.9674 91.6905 67.4394 91.1065C66.9194 90.5225 66.6594 89.7985 66.6594 88.9345C66.6594 88.0705 66.9194 87.3505 67.4394 86.7745C67.9674 86.1905 68.6634 85.8985 69.5274 85.8985C70.3914 85.8985 71.0834 86.1905 71.6034 86.7745C72.1314 87.3505 72.3954 88.0705 72.3954 88.9345C72.3954 89.7985 72.1314 90.5225 71.6034 91.1065ZM68.1114 90.5305C68.4634 90.9625 68.9354 91.1785 69.5274 91.1785C70.1194 91.1785 70.5874 90.9625 70.9314 90.5305C71.2754 90.0905 71.4474 89.5585 71.4474 88.9345C71.4474 88.3105 71.2754 87.7825 70.9314 87.3505C70.5874 86.9185 70.1194 86.7025 69.5274 86.7025C68.9354 86.7025 68.4634 86.9225 68.1114 87.3625C67.7674 87.7945 67.5954 88.3185 67.5954 88.9345C67.5954 89.5585 67.7674 90.0905 68.1114 90.5305ZM75.8186 91.8385H74.9186V86.8345H73.2386V86.0425H77.5106V86.8345H75.8186V91.8385ZM83.2987 91.1065C82.7787 91.6905 82.0867 91.9825 81.2227 91.9825C80.3587 91.9825 79.6627 91.6905 79.1347 91.1065C78.6147 90.5225 78.3547 89.7985 78.3547 88.9345C78.3547 88.0705 78.6147 87.3505 79.1347 86.7745C79.6627 86.1905 80.3587 85.8985 81.2227 85.8985C82.0867 85.8985 82.7787 86.1905 83.2987 86.7745C83.8267 87.3505 84.0907 88.0705 84.0907 88.9345C84.0907 89.7985 83.8267 90.5225 83.2987 91.1065ZM79.8067 90.5305C80.1587 90.9625 80.6307 91.1785 81.2227 91.1785C81.8147 91.1785 82.2827 90.9625 82.6267 90.5305C82.9707 90.0905 83.1427 89.5585 83.1427 88.9345C83.1427 88.3105 82.9707 87.7825 82.6267 87.3505C82.2827 86.9185 81.8147 86.7025 81.2227 86.7025C80.6307 86.7025 80.1587 86.9225 79.8067 87.3625C79.4627 87.7945 79.2907 88.3185 79.2907 88.9345C79.2907 89.5585 79.4627 90.0905 79.8067 90.5305ZM88.8099 91.8385H85.5579V86.0425H88.7499C89.2539 86.0425 89.6499 86.1785 89.9379 86.4505C90.2339 86.7225 90.3819 87.0825 90.3819 87.5305C90.3819 87.8585 90.2899 88.1425 90.1059 88.3825C89.9299 88.6145 89.7099 88.7705 89.4459 88.8505C89.7419 88.9225 89.9899 89.0945 90.1899 89.3665C90.3979 89.6385 90.5019 89.9385 90.5019 90.2665C90.5019 90.7385 90.3499 91.1185 90.0459 91.4065C89.7499 91.6945 89.3379 91.8385 88.8099 91.8385ZM88.6299 91.0465C88.9179 91.0465 89.1459 90.9665 89.3139 90.8065C89.4819 90.6465 89.5659 90.4305 89.5659 90.1585C89.5659 89.9105 89.4819 89.6985 89.3139 89.5225C89.1459 89.3465 88.9179 89.2585 88.6299 89.2585H86.4579V91.0465H88.6299ZM88.5939 88.4665C88.8659 88.4665 89.0779 88.3945 89.2299 88.2505C89.3819 88.0985 89.4579 87.9025 89.4579 87.6625C89.4579 87.4065 89.3819 87.2065 89.2299 87.0625C89.0779 86.9105 88.8659 86.8345 88.5939 86.8345H86.4579V88.4665H88.5939ZM97.3024 91.8385H96.1504L94.0624 89.2345L93.1024 90.1825V91.8385H92.2024V86.0425H93.1024V89.1265L96.1504 86.0425H97.2904L94.7224 88.6705L97.3024 91.8385ZM102.89 91.8385H101.99V91.1785C101.502 91.7145 100.862 91.9825 100.07 91.9825C99.5345 91.9825 99.0625 91.8105 98.6545 91.4665C98.2465 91.1225 98.0425 90.6545 98.0425 90.0625C98.0425 89.4545 98.2425 88.9865 98.6425 88.6585C99.0505 88.3225 99.5265 88.1545 100.07 88.1545C100.894 88.1545 101.534 88.4185 101.99 88.9465V87.9025C101.99 87.5185 101.854 87.2185 101.582 87.0025C101.31 86.7865 100.958 86.6785 100.526 86.6785C99.8465 86.6785 99.2545 86.9465 98.7505 87.4825L98.3305 86.8585C98.9465 86.2185 99.7185 85.8985 100.646 85.8985C101.31 85.8985 101.85 86.0585 102.266 86.3785C102.682 86.6985 102.89 87.1905 102.89 87.8545V91.8385ZM100.394 91.3345C101.114 91.3345 101.646 91.0945 101.99 90.6145V89.5225C101.646 89.0425 101.114 88.8025 100.394 88.8025C99.9785 88.8025 99.6345 88.9225 99.3625 89.1625C99.0985 89.3945 98.9665 89.6985 98.9665 90.0745C98.9665 90.4425 99.0985 90.7465 99.3625 90.9865C99.6345 91.2185 99.9785 91.3345 100.394 91.3345Z" fill="black"/>
</svg>
