<svg width="116" height="116" viewBox="0 0 116 116" fill="none" xmlns="http://www.w3.org/2000/svg">
<rect x="0.186462" width="115.254" height="115.581" rx="8" fill="#F5F5F5"/>
<path d="M34.7864 91.8385H33.5504L30.5144 88.2385L29.7104 89.1505V91.8385H28.7144V83.8345H29.7104V87.9745L33.2504 83.8345H34.4984L31.1624 87.6385L34.7864 91.8385ZM40.0833 91.1065C39.5633 91.6905 38.8713 91.9825 38.0073 91.9825C37.1433 91.9825 36.4473 91.6905 35.9193 91.1065C35.3993 90.5225 35.1393 89.7985 35.1393 88.9345C35.1393 88.0705 35.3993 87.3505 35.9193 86.7745C36.4473 86.1905 37.1433 85.8985 38.0073 85.8985C38.8713 85.8985 39.5633 86.1905 40.0833 86.7745C40.6113 87.3505 40.8753 88.0705 40.8753 88.9345C40.8753 89.7985 40.6113 90.5225 40.0833 91.1065ZM36.5913 90.5305C36.9433 90.9625 37.4153 91.1785 38.0073 91.1785C38.5993 91.1785 39.0673 90.9625 39.4113 90.5305C39.7553 90.0905 39.9273 89.5585 39.9273 88.9345C39.9273 88.3105 39.7553 87.7825 39.4113 87.3505C39.0673 86.9185 38.5993 86.7025 38.0073 86.7025C37.4153 86.7025 36.9433 86.9225 36.5913 87.3625C36.2473 87.7945 36.0753 88.3185 36.0753 88.9345C36.0753 89.5585 36.2473 90.0905 36.5913 90.5305ZM44.2985 91.8385H43.3985V86.8345H41.7185V86.0425H45.9905V86.8345H44.2985V91.8385ZM49.7866 91.9825C48.9226 91.9825 48.2146 91.7025 47.6626 91.1425C47.1106 90.5745 46.8346 89.8385 46.8346 88.9345C46.8346 88.0865 47.1066 87.3705 47.6506 86.7865C48.1946 86.1945 48.8746 85.8985 49.6906 85.8985C50.5466 85.8985 51.2226 86.1945 51.7186 86.7865C52.2226 87.3705 52.4746 88.1105 52.4746 89.0065V89.2345H47.7826C47.8226 89.8025 48.0306 90.2785 48.4066 90.6625C48.7826 91.0465 49.2706 91.2385 49.8706 91.2385C50.5906 91.2385 51.1866 90.9945 51.6586 90.5065L52.0906 91.0945C51.4986 91.6865 50.7306 91.9825 49.7866 91.9825ZM51.5866 88.5745C51.5786 88.0785 51.4106 87.6345 51.0826 87.2425C50.7546 86.8425 50.2866 86.6425 49.6786 86.6425C49.1026 86.6425 48.6466 86.8385 48.3106 87.2305C47.9826 87.6225 47.8066 88.0705 47.7826 88.5745H51.5866ZM53.2483 91.9825V91.2385C53.5203 91.2385 53.7443 91.0585 53.9203 90.6985C54.0963 90.3385 54.2403 89.7385 54.3523 88.8985L54.7243 86.0425H58.7563V91.8385H57.8563V86.8345H55.5163L55.2523 89.0065C55.1243 90.0705 54.9003 90.8345 54.5803 91.2985C54.2603 91.7545 53.8163 91.9825 53.2483 91.9825ZM60.5534 86.0425H61.4534V88.2865H63.6254C64.2014 88.2865 64.6494 88.4585 64.9694 88.8025C65.2894 89.1385 65.4494 89.5585 65.4494 90.0625C65.4494 90.5665 65.2854 90.9905 64.9574 91.3345C64.6374 91.6705 64.1934 91.8385 63.6254 91.8385H60.5534V86.0425ZM63.5294 89.0785H61.4534V91.0465H63.5294C63.8494 91.0465 64.0934 90.9585 64.2614 90.7825C64.4374 90.5985 64.5254 90.3585 64.5254 90.0625C64.5254 89.7665 64.4374 89.5305 64.2614 89.3545C64.0934 89.1705 63.8494 89.0785 63.5294 89.0785ZM67.723 91.8385H66.823V86.0425H67.723V88.4545H70.747V86.0425H71.647V91.8385H70.747V89.2465H67.723V91.8385ZM73.4441 86.0425H74.3441V88.2865H76.5161C77.0921 88.2865 77.5401 88.4585 77.8601 88.8025C78.1801 89.1385 78.3401 89.5585 78.3401 90.0625C78.3401 90.5665 78.1761 90.9905 77.8481 91.3345C77.5281 91.6705 77.0841 91.8385 76.5161 91.8385H73.4441V86.0425ZM76.4201 89.0785H74.3441V91.0465H76.4201C76.7401 91.0465 76.9841 90.9585 77.1521 90.7825C77.3281 90.5985 77.4161 90.3585 77.4161 90.0625C77.4161 89.7665 77.3281 89.5305 77.1521 89.3545C76.9841 89.1705 76.7401 89.0785 76.4201 89.0785ZM80.1881 91.8385H79.2881V86.0425H80.1881V91.8385ZM84.603 91.9825C83.739 91.9825 83.031 91.7025 82.479 91.1425C81.927 90.5745 81.651 89.8385 81.651 88.9345C81.651 88.0865 81.923 87.3705 82.467 86.7865C83.011 86.1945 83.691 85.8985 84.507 85.8985C85.363 85.8985 86.039 86.1945 86.535 86.7865C87.039 87.3705 87.291 88.1105 87.291 89.0065V89.2345H82.599C82.639 89.8025 82.847 90.2785 83.223 90.6625C83.599 91.0465 84.087 91.2385 84.687 91.2385C85.407 91.2385 86.003 90.9945 86.475 90.5065L86.907 91.0945C86.315 91.6865 85.547 91.9825 84.603 91.9825ZM86.403 88.5745C86.395 88.0785 86.227 87.6345 85.899 87.2425C85.571 86.8425 85.103 86.6425 84.495 86.6425C83.919 86.6425 83.463 86.8385 83.127 87.2305C82.799 87.6225 82.623 88.0705 82.599 88.5745H86.403Z" fill="black"/>
<path d="M79.8252 41.8643H76.3293V38.7484C76.3293 38.1643 75.9409 37.7745 75.3581 37.7745H73.2217V25.894C73.2217 23.7515 71.4739 22.0963 69.4347 22.0963H47.2949C45.1585 22.0963 43.508 23.849 43.508 25.894V30.1786C38.7499 30.6655 35.0599 34.6582 35.0599 39.5269L35.0595 67.8646C35.0595 68.4487 35.4478 68.8385 36.0307 68.8385H52.7327C53.3152 68.8385 53.7038 68.4491 53.7038 67.8646V38.6505C53.3155 34.1708 49.8197 30.7626 45.45 30.2756V25.8935C45.3527 24.92 46.2266 24.0437 47.295 24.0437H57.2965V67.8644C57.2965 68.4485 57.6848 68.8383 58.2677 68.8383C58.8501 68.8383 59.2388 68.4489 59.2388 67.8644L59.2384 24.0437H69.4348C70.5029 24.0437 71.2798 24.92 71.2798 25.8939V37.7744H67.4929C66.9104 37.7744 66.5217 38.1638 66.5217 38.7483V41.8642H63.0258C62.4434 41.8642 62.0547 42.2536 62.0547 42.8381V67.8645C62.0547 68.4486 62.443 68.8384 63.0258 68.8384H79.8253C80.4078 68.8384 80.7965 68.449 80.7965 67.8645L80.7961 42.8381C80.7961 42.2536 80.3109 41.8642 79.8253 41.8642L79.8252 41.8643ZM48.169 33.1976C47.0037 33.8792 45.7416 34.2687 44.3821 34.2687C43.0226 34.2687 41.76 33.8793 40.5951 33.1976C41.7604 32.516 43.0226 32.1265 44.3821 32.1265C45.6442 32.1261 47.0037 32.5159 48.169 33.1976ZM51.6645 38.8455C51.7618 39.3325 51.6645 66.4035 51.6645 66.8911H36.9053V39.5275C36.9053 37.5798 37.585 35.8271 38.9445 34.4637C40.4981 35.5348 42.4404 36.2164 44.3823 36.2164C46.3245 36.2164 48.1692 35.6323 49.82 34.4637C50.7912 35.6323 51.5682 37.1903 51.665 38.8458L51.6645 38.8455ZM68.464 39.7219H74.3874V41.8643H68.464V39.7219ZM78.8543 66.891H63.9977V43.812H78.8543V66.891Z" fill="#1363DF"/>
<path d="M71.4741 45.1748C68.8521 45.1748 66.813 47.3173 66.813 49.8491C66.813 52.381 68.9494 54.5235 71.4741 54.5235C73.9988 54.5235 76.1352 52.381 76.1352 49.8491C76.1352 47.3169 73.9988 45.1748 71.4741 45.1748ZM71.4741 52.5753C69.9205 52.5753 68.7552 51.3096 68.7552 49.8487C68.7552 48.2908 70.0174 47.1222 71.4741 47.1222C73.0277 47.1222 74.193 48.3879 74.193 49.8487C74.193 51.4071 72.9308 52.5753 71.4741 52.5753Z" fill="#1363DF"/>
<path d="M75.0665 56.9575H67.8806C67.2981 56.9575 66.9094 57.3469 66.9094 57.9314C66.9094 58.5155 67.2977 58.9053 67.8806 58.9053H75.0665C75.6489 58.9053 76.0376 58.5159 76.0376 57.9314C76.0376 57.3473 75.5521 56.9575 75.0665 56.9575Z" fill="#1363DF"/>
<path d="M75.0665 62.1185H67.8806C67.2981 62.1185 66.9094 62.5079 66.9094 63.0924C66.9094 63.6765 67.2977 64.0663 67.8806 64.0663H75.0665C75.6489 64.0663 76.0376 63.6769 76.0376 63.0924C76.0376 62.5079 75.5521 62.1185 75.0665 62.1185Z" fill="#1363DF"/>
</svg>
