<svg width="116" height="116" viewBox="0 0 116 116" fill="none" xmlns="http://www.w3.org/2000/svg">
<rect x="0.372925" width="115.254" height="115.581" rx="8" fill="#F5F5F5"/>
<path d="M59.1771 68.838H35.8723C35.4702 68.838 35.1442 68.5111 35.1442 68.1074V22.8265C35.1442 22.4233 35.4702 22.0963 35.8723 22.0963H59.1771C59.3701 22.0963 59.5554 22.1734 59.6919 22.3103C59.8284 22.4472 59.9053 22.633 59.9053 22.8265V27.6724C59.9053 28.0757 59.5793 28.4026 59.1771 28.4026C58.7746 28.4026 58.4486 28.0757 58.4486 27.6724V23.5572H36.6004V67.3773H58.4486V57.6567C58.4486 57.2531 58.7746 56.9261 59.1771 56.9261C59.5793 56.9261 59.9053 57.2531 59.9053 57.6567V68.1079C59.9053 68.3018 59.8284 68.4877 59.6919 68.6245C59.5554 68.7614 59.3701 68.8385 59.1771 68.8385V68.838Z" fill="#1363DF"/>
<path d="M44.7104 32.4193H40.3408C39.9386 32.4193 39.6126 32.0924 39.6126 31.6891V27.3071C39.6126 26.9038 39.9386 26.5769 40.3408 26.5769H44.7104C44.9034 26.5769 45.0887 26.6536 45.2252 26.7909C45.362 26.9277 45.4386 27.1136 45.4386 27.3071V31.6891C45.4386 31.8827 45.362 32.0685 45.2252 32.2054C45.0887 32.3426 44.9034 32.4194 44.7104 32.4194V32.4193ZM41.0689 30.9585H43.9819V28.0372H41.0689V30.9585Z" fill="#1363DF"/>
<path d="M54.7089 32.4193H50.3392C49.9371 32.4193 49.6111 32.0924 49.6111 31.6891V27.3071C49.6111 26.9038 49.9371 26.5769 50.3392 26.5769H54.7089C54.9019 26.5769 55.0872 26.6536 55.2237 26.7909C55.3605 26.9277 55.437 27.1136 55.437 27.3071V31.6891C55.437 31.8827 55.3605 32.0685 55.2237 32.2054C55.0872 32.3426 54.9019 32.4194 54.7089 32.4194V32.4193ZM51.0673 30.9585H53.9804V28.0372H51.0673V30.9585Z" fill="#1363DF"/>
<path d="M44.7104 41.2785H40.3408C39.9386 41.2785 39.6126 40.9515 39.6126 40.5483V36.1662C39.6126 35.763 39.9386 35.436 40.3408 35.436H44.7104C44.9034 35.436 45.0887 35.5128 45.2252 35.65C45.362 35.7869 45.4386 35.9727 45.4386 36.1663V40.5483C45.4386 40.7418 45.362 40.9276 45.2252 41.0649C45.0887 41.2018 44.9034 41.2785 44.7104 41.2785V41.2785ZM41.0689 39.8176H43.9819V36.8964H41.0689V39.8176Z" fill="#1363DF"/>
<path d="M44.7104 50.1416H40.3408C39.9386 50.1416 39.6126 49.8147 39.6126 49.4114V45.0294C39.6126 44.6262 39.9386 44.2988 40.3408 44.2988H44.7104C44.9034 44.2988 45.0887 44.3759 45.2252 44.5128C45.362 44.6501 45.4386 44.8355 45.4386 45.0294V49.4114C45.4386 49.605 45.362 49.7908 45.2252 49.9277C45.0887 50.0646 44.9034 50.1417 44.7104 50.1417V50.1416ZM41.0689 48.6808H43.9819V45.7595H41.0689V48.6808Z" fill="#1363DF"/>
<path d="M54.76 68.8381H40.2884C39.8863 68.8381 39.5602 68.5112 39.5602 68.1075V60.8956C39.5602 60.4923 39.8863 60.1654 40.2884 60.1654H54.76C54.953 60.1654 55.1383 60.2421 55.2748 60.379C55.4113 60.5162 55.4882 60.7021 55.4882 60.8956V68.1075C55.4882 68.3014 55.4113 68.4873 55.2748 68.6241C55.1383 68.761 54.953 68.8381 54.76 68.8381V68.8381ZM41.0216 67.3773H54.0317V61.6258H41.0177L41.0216 67.3773Z" fill="#1363DF"/>
<path d="M44.7104 59.0047H40.3408C39.9386 59.0047 39.6126 58.6777 39.6126 58.2741V53.8921C39.6126 53.4888 39.9386 53.1619 40.3408 53.1619H44.7104C44.9034 53.1619 45.0887 53.239 45.2252 53.3758C45.362 53.5127 45.4386 53.6985 45.4386 53.8921V58.2741C45.4386 58.468 45.362 58.6539 45.2252 58.7907C45.0887 58.9276 44.9034 59.0047 44.7104 59.0047V59.0047ZM41.0689 57.5439H43.9819V54.6226H41.0689V57.5439Z" fill="#1363DF"/>
<path d="M54.7089 59.0047H50.3392C49.9371 59.0047 49.6111 58.6777 49.6111 58.2741V53.8921C49.6111 53.4888 49.9371 53.1619 50.3392 53.1619H54.7089C54.9019 53.1619 55.0872 53.239 55.2237 53.3758C55.3605 53.5127 55.437 53.6985 55.437 53.8921V58.2741C55.437 58.468 55.3605 58.6539 55.2237 58.7907C55.0872 58.9276 54.9019 59.0047 54.7089 59.0047V59.0047ZM51.0673 57.5439H53.9804V54.6226H51.0673V57.5439Z" fill="#1363DF"/>
<path d="M47.5252 68.8381C47.1226 68.8381 46.7966 68.5112 46.7966 68.1075V60.8956C46.7966 60.4923 47.1226 60.1654 47.5252 60.1654C47.9273 60.1654 48.2533 60.4923 48.2533 60.8956V68.1075C48.2533 68.3014 48.1764 68.4873 48.0399 68.6241C47.9035 68.761 47.7182 68.8381 47.5252 68.8381L47.5252 68.8381Z" fill="#1363DF"/>
<path d="M50.34 41.2785C49.9379 41.2785 49.6119 40.9515 49.6119 40.5483V36.1662C49.6119 35.763 49.9379 35.436 50.34 35.436H51.5053C51.9074 35.436 52.2335 35.763 52.2335 36.1662C52.2335 36.5695 51.9074 36.8965 51.5053 36.8965H51.0682V40.5483C51.0682 40.7418 50.9917 40.9277 50.8552 41.0649C50.7183 41.2018 50.533 41.2785 50.34 41.2785L50.34 41.2785Z" fill="#1363DF"/>
<path d="M51.5082 50.1416H50.343H50.3433C49.9408 50.1416 49.6148 49.8147 49.6148 49.4114V45.0294C49.6148 44.6262 49.9408 44.2988 50.3433 44.2988C50.7455 44.2988 51.0715 44.6262 51.0715 45.0294V48.6813H51.5086L51.5082 48.6809C51.9107 48.6809 52.2368 49.0082 52.2368 49.4115C52.2368 49.8148 51.9107 50.1417 51.5082 50.1417L51.5082 50.1416Z" fill="#1363DF"/>
<path d="M66.9079 52.0405C65.2183 52.0386 63.5986 51.3647 62.404 50.1668C61.2095 48.969 60.5375 47.3443 60.5356 45.6502C60.5356 42.3928 65.7138 34.7134 66.3035 33.8478C66.4392 33.6489 66.6641 33.5302 66.904 33.5302C67.1443 33.5302 67.3692 33.6489 67.5049 33.8478C68.0947 34.7134 73.2728 42.393 73.2728 45.6502C73.2709 47.3431 72.6 48.9663 71.4071 50.1641C70.2137 51.362 68.596 52.0367 66.9078 52.0405H66.9079ZM66.9079 35.5786C65.131 38.3029 61.992 43.5431 61.992 45.6538C61.992 47.4153 62.9289 49.0427 64.4502 49.9233C65.9711 50.8038 67.8449 50.8038 69.3658 49.9233C70.8866 49.0427 71.824 47.4153 71.824 45.6538C71.8201 43.5287 68.6849 38.2884 66.908 35.5638L66.9079 35.5786Z" fill="#1363DF"/>
<path d="M66.908 57.6643C62.9692 57.6651 59.1913 56.0967 56.4056 53.3042C53.6198 50.5117 52.0548 46.7238 52.0544 42.7731C52.054 38.8232 53.6188 35.0353 56.4036 32.242C59.189 29.4491 62.9663 27.88 66.905 27.8804C70.8438 27.8808 74.6209 29.4503 77.4054 32.2439C80.19 35.0372 81.754 38.8259 81.7532 42.776C81.7482 46.7228 80.1827 50.5069 77.3997 53.2983C74.6163 56.0896 70.8433 57.6596 66.9072 57.6645L66.908 57.6643ZM66.908 29.3457V29.3454C63.3556 29.3446 59.9486 30.7587 57.4363 33.2771C54.9239 35.7955 53.5122 39.2118 53.5114 42.7738C53.5106 46.3362 54.9212 49.7528 57.4328 52.2723C59.9445 54.7914 63.3511 56.2071 66.9031 56.2071C70.4554 56.2075 73.8624 54.7926 76.3744 52.2738C78.886 49.755 80.2973 46.3388 80.2973 42.7763C80.2934 39.2159 78.8817 35.8027 76.3716 33.2847C73.8615 30.7667 70.458 29.3503 66.908 29.3453V29.3457Z" fill="#1363DF"/>
<path d="M23.6409 91.8385H22.4049L19.3689 88.2385L18.5649 89.1505V91.8385H17.5689V83.8345H18.5649V87.9745L22.1049 83.8345H23.3529L20.0169 87.6385L23.6409 91.8385ZM28.9377 91.1065C28.4177 91.6905 27.7257 91.9825 26.8617 91.9825C25.9977 91.9825 25.3017 91.6905 24.7737 91.1065C24.2537 90.5225 23.9937 89.7985 23.9937 88.9345C23.9937 88.0705 24.2537 87.3505 24.7737 86.7745C25.3017 86.1905 25.9977 85.8985 26.8617 85.8985C27.7257 85.8985 28.4177 86.1905 28.9377 86.7745C29.4657 87.3505 29.7297 88.0705 29.7297 88.9345C29.7297 89.7985 29.4657 90.5225 28.9377 91.1065ZM25.4457 90.5305C25.7977 90.9625 26.2697 91.1785 26.8617 91.1785C27.4537 91.1785 27.9217 90.9625 28.2657 90.5305C28.6097 90.0905 28.7817 89.5585 28.7817 88.9345C28.7817 88.3105 28.6097 87.7825 28.2657 87.3505C27.9217 86.9185 27.4537 86.7025 26.8617 86.7025C26.2697 86.7025 25.7977 86.9225 25.4457 87.3625C25.1017 87.7945 24.9297 88.3185 24.9297 88.9345C24.9297 89.5585 25.1017 90.0905 25.4457 90.5305ZM37.1129 91.8385H36.2129V87.2905L34.3289 91.8385H33.9929L32.0969 87.2905V91.8385H31.1969V86.0425H32.3849L34.1609 90.3385L35.9129 86.0425H37.1129V91.8385ZM44.8239 91.8385H43.9239V87.2905L42.0399 91.8385H41.7039L39.8079 87.2905V91.8385H38.9079V86.0425H40.0959L41.8719 90.3385L43.6239 86.0425H44.8239V91.8385ZM46.2948 94.1065L46.4388 93.2905C46.5828 93.3545 46.7468 93.3865 46.9308 93.3865C47.1388 93.3865 47.3108 93.3425 47.4468 93.2545C47.5828 93.1665 47.6988 93.0065 47.7948 92.7745L48.1788 91.8985L45.7548 86.0425H46.7268L48.6588 90.7945L50.5788 86.0425H51.5628L48.6588 93.0145C48.3388 93.7825 47.7708 94.1745 46.9548 94.1905C46.7148 94.1905 46.4948 94.1625 46.2948 94.1065ZM53.4016 91.8385H52.5016V86.0425H53.4016V88.4545H56.4256V86.0425H57.3256V91.8385H56.4256V89.2465H53.4016V91.8385ZM63.6467 91.8385H62.7467V91.1785C62.2587 91.7145 61.6187 91.9825 60.8267 91.9825C60.2907 91.9825 59.8187 91.8105 59.4107 91.4665C59.0027 91.1225 58.7987 90.6545 58.7987 90.0625C58.7987 89.4545 58.9987 88.9865 59.3987 88.6585C59.8067 88.3225 60.2827 88.1545 60.8267 88.1545C61.6507 88.1545 62.2907 88.4185 62.7467 88.9465V87.9025C62.7467 87.5185 62.6107 87.2185 62.3387 87.0025C62.0667 86.7865 61.7147 86.6785 61.2827 86.6785C60.6027 86.6785 60.0107 86.9465 59.5067 87.4825L59.0867 86.8585C59.7027 86.2185 60.4747 85.8985 61.4027 85.8985C62.0667 85.8985 62.6067 86.0585 63.0227 86.3785C63.4387 86.6985 63.6467 87.1905 63.6467 87.8545V91.8385ZM61.1507 91.3345C61.8707 91.3345 62.4027 91.0945 62.7467 90.6145V89.5225C62.4027 89.0425 61.8707 88.8025 61.1507 88.8025C60.7347 88.8025 60.3907 88.9225 60.1187 89.1625C59.8547 89.3945 59.7227 89.6985 59.7227 90.0745C59.7227 90.4425 59.8547 90.7465 60.1187 90.9865C60.3907 91.2185 60.7347 91.3345 61.1507 91.3345ZM64.7668 91.9825V91.2385C65.0388 91.2385 65.2628 91.0585 65.4388 90.6985C65.6148 90.3385 65.7588 89.7385 65.8708 88.8985L66.2428 86.0425H70.2748V91.8385H69.3748V86.8345H67.0348L66.7708 89.0065C66.6428 90.0705 66.4188 90.8345 66.0988 91.2985C65.7788 91.7545 65.3348 91.9825 64.7668 91.9825ZM72.0719 86.0425H72.9719V88.2865H75.1439C75.7199 88.2865 76.1679 88.4585 76.4879 88.8025C76.8079 89.1385 76.9679 89.5585 76.9679 90.0625C76.9679 90.5665 76.8039 90.9905 76.4759 91.3345C76.1559 91.6705 75.7119 91.8385 75.1439 91.8385H72.0719V86.0425ZM75.0479 89.0785H72.9719V91.0465H75.0479C75.3679 91.0465 75.6119 90.9585 75.7799 90.7825C75.9559 90.5985 76.0439 90.3585 76.0439 90.0625C76.0439 89.7665 75.9559 89.5305 75.7799 89.3545C75.6119 89.1705 75.3679 89.0785 75.0479 89.0785ZM79.2415 91.8385H78.3415V86.0425H79.2415V88.4545H82.2655V86.0425H83.1655V91.8385H82.2655V89.2465H79.2415V91.8385ZM84.9626 86.0425H85.8626V88.2865H88.0346C88.6106 88.2865 89.0586 88.4585 89.3786 88.8025C89.6986 89.1385 89.8586 89.5585 89.8586 90.0625C89.8586 90.5665 89.6946 90.9905 89.3666 91.3345C89.0466 91.6705 88.6026 91.8385 88.0346 91.8385H84.9626V86.0425ZM87.9386 89.0785H85.8626V91.0465H87.9386C88.2586 91.0465 88.5026 90.9585 88.6706 90.7825C88.8466 90.5985 88.9346 90.3585 88.9346 90.0625C88.9346 89.7665 88.8466 89.5305 88.6706 89.3545C88.5026 89.1705 88.2586 89.0785 87.9386 89.0785ZM91.7066 91.8385H90.8066V86.0425H91.7066V91.8385ZM96.1215 91.9825C95.2575 91.9825 94.5495 91.7025 93.9975 91.1425C93.4455 90.5745 93.1695 89.8385 93.1695 88.9345C93.1695 88.0865 93.4415 87.3705 93.9855 86.7865C94.5295 86.1945 95.2095 85.8985 96.0255 85.8985C96.8815 85.8985 97.5575 86.1945 98.0535 86.7865C98.5575 87.3705 98.8095 88.1105 98.8095 89.0065V89.2345H94.1175C94.1575 89.8025 94.3655 90.2785 94.7415 90.6625C95.1175 91.0465 95.6055 91.2385 96.2055 91.2385C96.9255 91.2385 97.5215 90.9945 97.9935 90.5065L98.4255 91.0945C97.8335 91.6865 97.0655 91.9825 96.1215 91.9825ZM97.9215 88.5745C97.9135 88.0785 97.7455 87.6345 97.4175 87.2425C97.0895 86.8425 96.6215 86.6425 96.0135 86.6425C95.4375 86.6425 94.9815 86.8385 94.6455 87.2305C94.3175 87.6225 94.1415 88.0705 94.1175 88.5745H97.9215Z" fill="black"/>
</svg>
