<svg width="121" height="122" viewBox="0 0 121 122" fill="none" xmlns="http://www.w3.org/2000/svg">
<circle cx="60.2115" cy="60.9774" r="60.2115" fill="white"/>
<path d="M61.6776 44.7185C61.482 44.5209 61.2115 44.4159 60.9337 44.4294L54.1174 44.8014C53.6439 42.8826 52.5021 41.1953 50.8971 40.0414C49.2926 38.8879 47.3293 38.3432 45.3595 38.5055C43.3897 38.6675 41.5422 39.5257 40.1473 40.926C38.5858 42.4909 37.709 44.6115 37.709 46.8224C37.709 49.0333 38.5858 51.1539 40.1473 52.7188C41.2152 53.7906 42.5577 54.5473 44.0278 54.9061L43.6558 61.7173C43.6422 61.9924 43.7453 62.261 43.9398 62.4562L57.7879 76.3043H57.7875C57.965 76.5112 58.2207 76.6348 58.4931 76.6457C58.7655 76.6561 59.0301 76.5523 59.2231 76.3597C59.4156 76.1668 59.5195 75.9021 59.5086 75.6297C59.4982 75.3573 59.3745 75.1016 59.1673 74.9242L45.6326 61.3895L46.3374 48.3439V48.3435C46.4107 47.6984 46.9202 47.1888 47.5653 47.1156L52.4195 46.8514C52.4153 48.533 51.745 50.1444 50.5554 51.3336C50.3718 51.5173 50.2683 51.766 50.2683 52.026C50.2683 52.2856 50.3718 52.5348 50.5554 52.7184C50.9379 53.1009 51.5578 53.1009 51.9402 52.7184C53.5269 51.1372 54.4088 48.9833 54.3867 46.7438L60.6207 46.4109L80.3547 66.1549L65.3769 81.1328L62.627 78.3876C62.2388 78.0551 61.6599 78.0776 61.2983 78.4391C60.9368 78.8006 60.9144 79.3795 61.2472 79.7678L64.6724 83.1929C65.054 83.5723 65.6704 83.5723 66.0521 83.1929L82.4295 66.8591C82.8089 66.4775 82.8089 65.8611 82.4295 65.4794L61.6776 44.7185ZM47.4526 45.159V45.1586C46.6576 45.2226 45.9113 45.567 45.3471 46.1312C44.7833 46.6949 44.4385 47.4416 44.3746 48.2367L44.125 52.9146C41.9893 52.2493 40.3566 50.5157 39.8206 48.3436C39.2848 46.1718 39.9237 43.8778 41.5049 42.2953C43.0861 40.7133 45.3799 40.0728 47.5521 40.6074C49.7246 41.1421 51.4593 42.7738 52.1257 44.909L47.4526 45.159Z" fill="#1363DF"/>
<path d="M52.7908 59.5197C52.1127 60.1978 51.7314 61.1176 51.7314 62.0766C51.7314 63.0356 52.1123 63.9554 52.7904 64.6338C53.4685 65.3119 54.3883 65.6928 55.3477 65.6928C56.3066 65.6928 57.2264 65.3119 57.9045 64.6338C58.5826 63.9554 58.9635 63.0356 58.9635 62.0766C58.9635 61.1176 58.5826 60.1978 57.9041 59.5197C57.2253 58.8428 56.3058 58.4628 55.3477 58.4628C54.3891 58.4628 53.4696 58.8429 52.7908 59.5197ZM56.5194 60.9046C56.8828 61.2699 57.0556 61.7837 56.9871 62.2948C56.9185 62.8059 56.6163 63.2557 56.1691 63.5126C55.722 63.7691 55.1811 63.8036 54.7049 63.6052C54.2291 63.4068 53.8726 62.9984 53.7401 62.5005C53.6076 62.0022 53.7141 61.4706 54.0287 61.0622C54.343 60.6535 54.8296 60.4144 55.345 60.4152C55.7848 60.4128 56.2071 60.5857 56.5194 60.8945L56.5194 60.9046Z" fill="#1363DF"/>
<path d="M69.7853 64.6241C70.5827 63.8291 70.9648 62.7086 70.8191 61.5919C70.6738 60.4756 70.017 59.4902 69.0426 58.9261C68.0681 58.362 66.8871 58.2833 65.8463 58.713C64.8056 59.1431 64.0241 60.0324 63.7316 61.1196C63.4394 62.2068 63.6692 63.3684 64.3542 64.262C65.0389 65.1558 66.1002 65.6805 67.2261 65.6809C68.1855 65.6817 69.1061 65.3016 69.7853 64.6243L69.7853 64.6241ZM66.0811 60.8952C66.3919 60.584 66.8138 60.4089 67.2539 60.4085C67.6941 60.4081 68.1164 60.5829 68.4276 60.894C68.7391 61.2051 68.9138 61.6271 68.9138 62.0672C68.9138 62.5074 68.7391 62.9293 68.4276 63.2405C68.1164 63.5516 67.6941 63.7263 67.2539 63.7259C66.8138 63.7259 66.3918 63.5508 66.0811 63.2393C65.7696 62.9289 65.5941 62.507 65.5941 62.0673C65.5941 61.6275 65.7696 61.2055 66.0811 60.8952V60.8952Z" fill="#1363DF"/>
<path d="M62.3828 70.9208V53.2122C62.3828 52.6717 61.9445 52.2335 61.404 52.2335C60.8635 52.2335 60.4253 52.6717 60.4253 53.2122V70.9208C60.4253 71.4613 60.8635 71.8995 61.404 71.8995C61.9445 71.8995 62.3828 71.4613 62.3828 70.9208Z" fill="#1363DF"/>
</svg>
