<svg width="18" height="22" viewBox="0 0 18 22" fill="none" xmlns="http://www.w3.org/2000/svg">
<path d="M15 6.0026H14.65C14.8782 5.53537 14.9979 5.02259 15 4.5026C15.003 3.80593 14.7975 3.12429 14.4098 2.54543C14.0221 1.96657 13.4701 1.51698 12.8247 1.25454C12.1794 0.992094 11.4703 0.928803 10.7886 1.07281C10.107 1.21682 9.48405 1.56154 9 2.0626C8.51595 1.56154 7.89302 1.21682 7.21138 1.07281C6.52975 0.928803 5.82061 0.992094 5.17525 1.25454C4.5299 1.51698 3.97786 1.96657 3.59019 2.54543C3.20252 3.12429 2.99697 3.80593 3 4.5026C3.00213 5.02259 3.12178 5.53537 3.35 6.0026H3C2.20435 6.0026 1.44129 6.31867 0.87868 6.88128C0.316071 7.44389 0 8.20695 0 9.0026V11.0026C0 11.2678 0.105357 11.5222 0.292893 11.7097C0.48043 11.8972 0.734784 12.0026 1 12.0026H2V18.0026C2 18.7983 2.31607 19.5613 2.87868 20.1239C3.44129 20.6865 4.20435 21.0026 5 21.0026H13C13.7956 21.0026 14.5587 20.6865 15.1213 20.1239C15.6839 19.5613 16 18.7983 16 18.0026V12.0026H17C17.2652 12.0026 17.5196 11.8972 17.7071 11.7097C17.8946 11.5222 18 11.2678 18 11.0026V9.0026C18 8.20695 17.6839 7.44389 17.1213 6.88128C16.5587 6.31867 15.7956 6.0026 15 6.0026ZM8 19.0026H5C4.73478 19.0026 4.48043 18.8972 4.29289 18.7097C4.10536 18.5222 4 18.2678 4 18.0026V12.0026H8V19.0026ZM8 10.0026H2V9.0026C2 8.73738 2.10536 8.48303 2.29289 8.29549C2.48043 8.10796 2.73478 8.0026 3 8.0026H8V10.0026ZM8 6.0026H6.5C6.20333 6.0026 5.91332 5.91463 5.66665 5.74981C5.41997 5.58498 5.22771 5.35072 5.11418 5.07663C5.00065 4.80254 4.97094 4.50094 5.02882 4.20997C5.0867 3.91899 5.22956 3.65172 5.43934 3.44194C5.64912 3.23216 5.91639 3.0893 6.20736 3.03142C6.49834 2.97355 6.79994 3.00325 7.07403 3.11678C7.34811 3.23031 7.58238 3.42257 7.7472 3.66925C7.91203 3.91592 8 4.20593 8 4.5026V6.0026ZM10 4.5026C10 4.20593 10.088 3.91592 10.2528 3.66925C10.4176 3.42257 10.6519 3.23031 10.926 3.11678C11.2001 3.00325 11.5017 2.97355 11.7926 3.03142C12.0836 3.0893 12.3509 3.23216 12.5607 3.44194C12.7704 3.65172 12.9133 3.91899 12.9712 4.20997C13.0291 4.50094 12.9994 4.80254 12.8858 5.07663C12.7723 5.35072 12.58 5.58498 12.3334 5.74981C12.0867 5.91463 11.7967 6.0026 11.5 6.0026H10V4.5026ZM14 18.0026C14 18.2678 13.8946 18.5222 13.7071 18.7097C13.5196 18.8972 13.2652 19.0026 13 19.0026H10V12.0026H14V18.0026ZM16 10.0026H10V8.0026H15C15.2652 8.0026 15.5196 8.10796 15.7071 8.29549C15.8946 8.48303 16 8.73738 16 9.0026V10.0026Z" fill="white"/>
</svg>
