<svg width="116" height="116" viewBox="0 0 116 116" fill="none" xmlns="http://www.w3.org/2000/svg">
<rect x="0.559265" width="115.254" height="115.581" rx="8" fill="#F5F5F5"/>
<path d="M56.355 22.0973C55.8884 22.1394 55.5049 22.4837 55.4119 22.9436L54.882 25.5658C54.4705 25.7099 54.0735 25.8729 53.6904 26.0639L51.4565 24.5867C51.035 24.3174 50.4833 24.3795 50.1325 24.7361C49.3314 25.5417 48.456 26.349 47.6169 27.1922C47.2579 27.551 47.2024 28.1143 47.4846 28.5366L48.9907 30.7771C48.799 31.1692 48.6369 31.5722 48.4941 31.9888L45.8295 32.5697C45.3359 32.6722 44.983 33.1094 44.9856 33.6149V37.0838C44.9908 37.5828 45.342 38.0112 45.8295 38.1128L48.4941 38.6937C48.6369 39.1098 48.799 39.5128 48.9907 39.9049L47.4846 42.1622C47.2116 42.581 47.2666 43.1338 47.6169 43.4899C48.456 44.3332 49.3314 45.141 50.1325 45.946C50.4833 46.3026 51.035 46.3653 51.4565 46.0954L53.707 44.635C54.0892 44.8251 54.488 44.9903 54.8986 45.1331L55.4118 47.7386C55.507 48.2401 55.9452 48.6024 56.4541 48.6015H59.9625C60.4719 48.6024 60.91 48.2401 61.0052 47.7386L61.5185 45.1331C61.9291 44.9903 62.3274 44.8251 62.7096 44.635L64.9605 46.0954C65.3816 46.3653 65.9337 46.3026 66.2845 45.946C67.0856 45.1409 67.961 44.3331 68.8001 43.4899C69.1504 43.1338 69.2055 42.581 68.9325 42.1622L67.4263 39.9049C67.6181 39.5129 67.7801 39.1099 67.923 38.6937L70.5871 38.1128C71.075 38.0112 71.4262 37.5828 71.4314 37.0838V33.6149C71.434 33.1094 71.0807 32.6722 70.5871 32.5697L67.923 31.9888C67.7801 31.5722 67.6181 31.1692 67.4263 30.7771L68.9325 28.5366C69.2146 28.1143 69.1592 27.551 68.8001 27.1922C67.961 26.349 67.0856 25.5416 66.2845 24.7361C65.9337 24.3795 65.3816 24.3173 64.9605 24.5867L62.7263 26.0639C62.3436 25.8729 61.9461 25.7099 61.5351 25.5658L61.0053 22.9436C60.903 22.4486 60.4667 22.0947 59.9626 22.0973H56.4541C56.4213 22.096 56.3882 22.096 56.355 22.0973ZM57.3312 24.2218H59.0855L59.549 26.5119C59.632 26.9101 59.9338 27.2255 60.3269 27.325C61.0324 27.512 61.681 27.8051 62.3127 28.1717C62.6591 28.371 63.0876 28.3583 63.4218 28.1384L65.4076 26.844C65.8352 27.2623 66.2637 27.6636 66.6818 28.0718L65.3578 30.0637C65.1337 30.3953 65.1145 30.825 65.3084 31.1754C65.6623 31.787 65.9624 32.4966 66.1524 33.2001C66.2541 33.5834 66.5603 33.8778 66.9465 33.9637L69.3131 34.4617V36.221L66.9465 36.7353C66.5604 36.8211 66.2541 37.1155 66.1524 37.4988C65.9624 38.2027 65.6623 38.8953 65.3084 39.5068C65.1075 39.8616 65.1267 40.3001 65.3578 40.6351L66.6651 42.6103C66.2471 43.0185 65.8352 43.4369 65.4076 43.8548L63.4218 42.5438C63.0846 42.3291 62.656 42.323 62.3127 42.5271C61.6811 42.8942 61.0324 43.1702 60.3269 43.3572C59.9338 43.4567 59.632 43.7725 59.549 44.1703L59.0855 46.477H57.3312L56.8682 44.1703C56.7852 43.7725 56.4834 43.4567 56.0903 43.3572C55.3848 43.1702 54.7357 42.8942 54.1045 42.5271C53.7611 42.323 53.3326 42.3291 52.9954 42.5438L51.0096 43.8548C50.582 43.4369 50.1701 43.0186 49.7516 42.6103L51.059 40.6351C51.2905 40.3 51.3097 39.8615 51.1087 39.5068C50.7549 38.8953 50.4548 38.2027 50.2648 37.4988C50.163 37.1155 49.8564 36.8211 49.4703 36.7353L47.1041 36.221V34.4617L49.4703 33.9637C49.8564 33.8778 50.163 33.5834 50.2648 33.2001C50.4548 32.4966 50.7549 31.7869 51.1087 31.1754C51.3027 30.825 51.2835 30.3953 51.059 30.0637L49.735 28.0718C50.1534 27.6636 50.5815 27.2623 51.0095 26.844L52.9953 28.1384C53.329 28.3583 53.758 28.371 54.1044 28.1717C54.7356 27.8051 55.3846 27.512 56.0901 27.325C56.4833 27.2255 56.7851 26.9101 56.8681 26.5119L57.3312 24.2218ZM58.2084 31.076C55.871 31.076 53.9556 32.9968 53.9556 35.3412C53.9556 37.6852 55.871 39.6061 58.2084 39.6061C60.5462 39.6061 62.4616 37.6852 62.4616 35.3412C62.4616 32.9968 60.5462 31.076 58.2084 31.076ZM58.2084 33.2C59.3917 33.2 60.3435 34.1545 60.3435 35.3412C60.3435 36.5279 59.3917 37.482 58.2084 37.482C57.025 37.482 56.0736 36.5279 56.0736 35.3412C56.0736 34.1546 57.025 33.2 58.2084 33.2ZM77.9017 43.4898C77.0722 43.4898 76.3217 43.8644 75.7836 44.4194L75.767 44.4028L75.7504 44.4356C75.7268 44.4597 74.2981 45.8776 72.7386 47.4397C71.1661 49.0145 69.5232 50.6511 69.0314 51.1903C68.8409 51.3992 68.7409 51.6757 68.754 51.9582C68.7675 52.2412 68.8925 52.5071 69.1017 52.6968C69.3109 52.8869 69.5874 52.9854 69.8692 52.9705C70.1509 52.9556 70.4152 52.8286 70.6035 52.6175C70.9389 52.2499 72.6587 50.5214 74.2277 48.9501C75.7971 47.3784 77.2566 45.9127 77.2566 45.9127C77.2675 45.9074 77.2784 45.9017 77.2893 45.896C77.4728 45.7028 77.6737 45.6139 77.9017 45.6139C78.3774 45.6139 78.8618 46.0713 78.8618 46.8089C78.8618 47.1269 78.7614 47.4003 78.6133 47.6057C78.6107 47.611 78.6163 47.6184 78.6133 47.6224C78.5674 47.678 72.2324 55.301 68.1376 60.1025C67.0067 61.4289 65.4525 62.7413 63.2558 62.7413H50.6946C49.3436 62.7413 47.9244 62.9875 46.8218 64.0691L43.8266 67.0066C43.6204 67.2033 43.5016 67.4749 43.4973 67.76C43.4929 68.0452 43.6034 68.3203 43.8035 68.5231C44.0035 68.7264 44.2765 68.8398 44.5609 68.8385C44.8457 68.8372 45.1178 68.7216 45.3161 68.517L48.3113 65.5795C48.9155 64.9863 49.5558 64.8659 50.6945 64.8659H63.2557C66.2972 64.8659 68.4267 63.0234 69.7429 61.4802C73.8712 56.6393 80.2683 48.9339 80.2683 48.9339C80.2797 48.9173 80.291 48.9011 80.3015 48.884C80.7287 48.3062 80.9799 47.5843 80.9799 46.8094C80.9799 45.0454 79.6572 43.4902 77.9017 43.4902L77.9017 43.4898ZM49.9669 51.4063C47.7195 51.4063 45.4032 51.723 43.5458 53.2483L35.8173 59.5882C35.3647 59.9641 35.3018 60.6365 35.6766 61.0899C36.0514 61.5437 36.7219 61.6068 37.1745 61.2314L44.8864 54.8915C46.1747 53.8332 47.9149 53.5305 49.9671 53.5305H65.5565C65.7377 54.0531 65.715 54.6913 65.3743 55.3229C64.9458 56.1175 64.2198 56.5525 63.8686 56.5179C63.8354 56.5109 63.8026 56.5052 63.769 56.5012H53.6576C53.3741 56.4973 53.1007 56.6073 52.8989 56.807C52.6966 57.0068 52.5831 57.2792 52.5831 57.5635C52.5831 57.8478 52.6966 58.1203 52.8989 58.3196C53.1007 58.5193 53.3741 58.6297 53.6576 58.6254H63.769V58.6087C65.321 58.7007 66.5511 57.6038 67.2443 56.3186C67.9558 55 68.1878 53.2281 67.1285 51.8378C66.9306 51.5688 66.6179 51.4089 66.2846 51.4063L49.9669 51.4063Z" fill="#1363DF"/>
<path d="M21.4325 91.9825C20.2565 91.9825 19.3005 91.5905 18.5645 90.8065C17.8285 90.0225 17.4605 89.0345 17.4605 87.8425C17.4605 86.6505 17.8285 85.6625 18.5645 84.8785C19.3005 84.0945 20.2565 83.7025 21.4325 83.7025C22.6005 83.7025 23.5525 84.0945 24.2885 84.8785C25.0325 85.6625 25.4045 86.6505 25.4045 87.8425C25.4045 89.0345 25.0325 90.0225 24.2885 90.8065C23.5525 91.5905 22.6005 91.9825 21.4325 91.9825ZM21.4325 91.0945C22.3125 91.0945 23.0205 90.7905 23.5565 90.1825C24.1005 89.5665 24.3725 88.7865 24.3725 87.8425C24.3725 86.8905 24.1005 86.1105 23.5565 85.5025C23.0205 84.8945 22.3125 84.5905 21.4325 84.5905C20.5445 84.5905 19.8325 84.8945 19.2965 85.5025C18.7605 86.1105 18.4925 86.8905 18.4925 87.8425C18.4925 88.7865 18.7605 89.5665 19.2965 90.1825C19.8325 90.7905 20.5445 91.0945 21.4325 91.0945ZM28.0403 90.5305C28.3923 90.9625 28.8643 91.1785 29.4563 91.1785C30.0483 91.1785 30.5163 90.9625 30.8603 90.5305C31.2043 90.0905 31.3763 89.5545 31.3763 88.9225C31.3763 88.3065 31.2043 87.7825 30.8603 87.3505C30.5163 86.9185 30.0483 86.7025 29.4563 86.7025C28.8643 86.7025 28.3923 86.9185 28.0403 87.3505C27.6963 87.7825 27.5243 88.3065 27.5243 88.9225C27.5243 89.5545 27.6963 90.0905 28.0403 90.5305ZM29.4563 91.9825C28.5843 91.9825 27.8883 91.6745 27.3683 91.0585C26.8483 90.4425 26.5883 89.6465 26.5883 88.6705C26.5883 87.2945 26.8363 86.2785 27.3323 85.6225C27.8283 84.9585 28.5923 84.5585 29.6243 84.4225C30.2403 84.3265 30.6643 84.2345 30.8963 84.1465C31.1363 84.0585 31.2563 83.9545 31.2563 83.8345H32.1323C32.1323 84.0585 32.0643 84.2545 31.9283 84.4225C31.7923 84.5825 31.5963 84.7105 31.3403 84.8065C31.0923 84.9025 30.8563 84.9785 30.6323 85.0345C30.4163 85.0825 30.1563 85.1265 29.8523 85.1665C29.0523 85.2785 28.4723 85.4985 28.1123 85.8265C27.7603 86.1545 27.5283 86.5905 27.4163 87.1345C27.9443 86.3105 28.6723 85.8985 29.6003 85.8985C30.4003 85.8985 31.0523 86.1905 31.5563 86.7745C32.0603 87.3585 32.3123 88.0745 32.3123 88.9225C32.3123 89.7865 32.0523 90.5145 31.5323 91.1065C31.0123 91.6905 30.3203 91.9825 29.4563 91.9825ZM36.4061 91.9825C35.5501 91.9825 34.8541 91.6945 34.3181 91.1185C33.7821 90.5345 33.5141 89.8065 33.5141 88.9345C33.5141 88.0625 33.7821 87.3385 34.3181 86.7625C34.8541 86.1865 35.5501 85.8985 36.4061 85.8985C37.3021 85.8985 38.0101 86.2345 38.5301 86.9065L37.9301 87.4585C37.5621 86.9545 37.0701 86.7025 36.4541 86.7025C35.8461 86.7025 35.3581 86.9105 34.9901 87.3265C34.6301 87.7425 34.4501 88.2785 34.4501 88.9345C34.4501 89.5905 34.6301 90.1305 34.9901 90.5545C35.3581 90.9705 35.8461 91.1785 36.4541 91.1785C37.0621 91.1785 37.5541 90.9265 37.9301 90.4225L38.5301 90.9745C38.0101 91.6465 37.3021 91.9825 36.4061 91.9825ZM39.1075 91.9825V91.2385C39.3795 91.2385 39.6035 91.0585 39.7795 90.6985C39.9555 90.3385 40.0995 89.7385 40.2115 88.8985L40.5835 86.0425H44.6155V91.8385H43.7155V86.8345H41.3755L41.1115 89.0065C40.9835 90.0705 40.7595 90.8345 40.4395 91.2985C40.1195 91.7545 39.6755 91.9825 39.1075 91.9825ZM46.0886 94.1065L46.2326 93.2905C46.3766 93.3545 46.5406 93.3865 46.7246 93.3865C46.9326 93.3865 47.1046 93.3425 47.2406 93.2545C47.3766 93.1665 47.4926 93.0065 47.5886 92.7745L47.9726 91.8985L45.5486 86.0425H46.5206L48.4526 90.7945L50.3726 86.0425H51.3566L48.4526 93.0145C48.1326 93.7825 47.5646 94.1745 46.7486 94.1905C46.5086 94.1905 46.2886 94.1625 46.0886 94.1065ZM52.7154 91.8385H51.5634L54.1434 88.6705L51.5754 86.0425H52.7154L55.2114 88.5985V86.0425H56.1114V88.5865L58.6074 86.0425H59.7474L57.1674 88.6705L59.7594 91.8385H58.6074L56.5194 89.2345L56.1114 89.6425V91.8385H55.2114V89.6425L54.8034 89.2345L52.7154 91.8385ZM61.6906 91.8385H60.8266V86.0425H61.7266V90.4705L64.7626 86.0425H65.6506V91.8385H64.7506V87.3265L61.6906 91.8385ZM70.6997 91.8385H67.4477V86.0425H70.6397C71.1437 86.0425 71.5397 86.1785 71.8277 86.4505C72.1237 86.7225 72.2717 87.0825 72.2717 87.5305C72.2717 87.8585 72.1797 88.1425 71.9957 88.3825C71.8197 88.6145 71.5997 88.7705 71.3357 88.8505C71.6317 88.9225 71.8797 89.0945 72.0797 89.3665C72.2877 89.6385 72.3917 89.9385 72.3917 90.2665C72.3917 90.7385 72.2397 91.1185 71.9357 91.4065C71.6397 91.6945 71.2277 91.8385 70.6997 91.8385ZM70.5197 91.0465C70.8077 91.0465 71.0357 90.9665 71.2037 90.8065C71.3717 90.6465 71.4557 90.4305 71.4557 90.1585C71.4557 89.9105 71.3717 89.6985 71.2037 89.5225C71.0357 89.3465 70.8077 89.2585 70.5197 89.2585H68.3477V91.0465H70.5197ZM70.4837 88.4665C70.7557 88.4665 70.9677 88.3945 71.1197 88.2505C71.2717 88.0985 71.3477 87.9025 71.3477 87.6625C71.3477 87.4065 71.2717 87.2065 71.1197 87.0625C70.9677 86.9105 70.7557 86.8345 70.4837 86.8345H68.3477V88.4665H70.4837ZM78.6163 91.8385H77.7163V91.1785C77.2283 91.7145 76.5883 91.9825 75.7963 91.9825C75.2603 91.9825 74.7883 91.8105 74.3803 91.4665C73.9723 91.1225 73.7683 90.6545 73.7683 90.0625C73.7683 89.4545 73.9683 88.9865 74.3683 88.6585C74.7763 88.3225 75.2523 88.1545 75.7963 88.1545C76.6203 88.1545 77.2603 88.4185 77.7163 88.9465V87.9025C77.7163 87.5185 77.5803 87.2185 77.3083 87.0025C77.0363 86.7865 76.6843 86.6785 76.2523 86.6785C75.5723 86.6785 74.9803 86.9465 74.4763 87.4825L74.0563 86.8585C74.6723 86.2185 75.4443 85.8985 76.3723 85.8985C77.0363 85.8985 77.5763 86.0585 77.9923 86.3785C78.4083 86.6985 78.6163 87.1905 78.6163 87.8545V91.8385ZM76.1203 91.3345C76.8403 91.3345 77.3723 91.0945 77.7163 90.6145V89.5225C77.3723 89.0425 76.8403 88.8025 76.1203 88.8025C75.7043 88.8025 75.3603 88.9225 75.0883 89.1625C74.8243 89.3945 74.6923 89.6985 74.6923 90.0745C74.6923 90.4425 74.8243 90.7465 75.0883 90.9865C75.3603 91.2185 75.7043 91.3345 76.1203 91.3345ZM81.3204 91.8385H80.4204V86.0425H81.3204V88.4545H84.3444V86.0425H85.2444V91.8385H84.3444V89.2465H81.3204V91.8385ZM87.9055 91.8385H87.0415V86.0425H87.9415V90.4705L90.9775 86.0425H91.8655V91.8385H90.9655V87.3265L87.9055 91.8385ZM96.2786 91.9825C95.4146 91.9825 94.7066 91.7025 94.1546 91.1425C93.6026 90.5745 93.3266 89.8385 93.3266 88.9345C93.3266 88.0865 93.5986 87.3705 94.1426 86.7865C94.6866 86.1945 95.3666 85.8985 96.1826 85.8985C97.0386 85.8985 97.7146 86.1945 98.2106 86.7865C98.7146 87.3705 98.9666 88.1105 98.9666 89.0065V89.2345H94.2746C94.3146 89.8025 94.5226 90.2785 94.8986 90.6625C95.2746 91.0465 95.7626 91.2385 96.3626 91.2385C97.0826 91.2385 97.6786 90.9945 98.1506 90.5065L98.5826 91.0945C97.9906 91.6865 97.2226 91.9825 96.2786 91.9825ZM98.0786 88.5745C98.0706 88.0785 97.9026 87.6345 97.5746 87.2425C97.2466 86.8425 96.7786 86.6425 96.1706 86.6425C95.5946 86.6425 95.1386 86.8385 94.8026 87.2305C94.4746 87.6225 94.2986 88.0705 94.2746 88.5745H98.0786Z" fill="black"/>
</svg>
