<svg width="117" height="116" viewBox="0 0 117 116" fill="none" xmlns="http://www.w3.org/2000/svg">
<rect x="0.779633" width="115.254" height="115.581" rx="8" fill="#F5F5F5"/>
<path d="M75.0332 64.8493C75.4829 65.212 75.5824 65.8584 75.264 66.3407C74.9452 66.8227 74.3131 66.9825 73.8044 66.709C69.2918 64.1788 63.7938 64.1788 59.2811 66.709C56.6414 68.0794 53.7175 68.8086 50.7458 68.8377C47.8509 68.8682 45.0044 68.0924 42.5233 66.5967C42.074 66.234 41.9741 65.5876 42.2929 65.1058C42.6113 64.6234 43.2439 64.464 43.7521 64.737C48.2656 67.2627 53.7618 67.2627 58.2754 64.737C63.4979 61.8376 69.8503 61.8802 75.0327 64.8493L75.0332 64.8493ZM42.5011 60.0093C42.0519 59.6466 41.9519 59.0002 42.2707 58.5178C42.5896 58.0359 43.2217 57.876 43.7299 58.1496C45.2601 59.039 46.9561 59.6036 48.7129 59.8079V27.6982C48.7129 26.2123 49.3012 24.7878 50.349 23.737C51.3962 22.6863 52.8172 22.0963 54.2984 22.0963C54.9158 22.0963 55.4158 22.5981 55.4158 23.2168C55.4158 23.8355 54.9158 24.3368 54.2984 24.3368C53.4097 24.3368 52.5573 24.6912 51.9288 25.3214C51.3004 25.9517 50.947 26.8065 50.947 27.6983V31.0592H66.5873L66.5877 27.6983C66.5877 26.2124 67.1761 24.7879 68.2234 23.7371C69.2711 22.6864 70.6921 22.0964 72.1733 22.0964C72.7903 22.0964 73.2906 22.5982 73.2906 23.2169C73.2906 23.8356 72.7903 24.3369 72.1733 24.3369C71.2845 24.3369 70.4321 24.6913 69.8037 25.3215C69.1748 25.9518 68.8218 26.8066 68.8218 27.6984V56.0655C71.0173 56.2906 73.1372 56.9943 75.0331 58.1268C75.4828 58.4899 75.5823 59.1359 75.264 59.6182C74.9451 60.1006 74.313 60.26 73.8043 59.9865C69.2917 57.4567 63.7937 57.4567 59.281 59.9865C56.6414 61.357 53.7175 62.0861 50.7457 62.1152C47.8559 62.1909 45.0021 61.4618 42.5007 60.0091L42.5011 60.0093ZM50.947 48.9852H66.5873L66.5878 42.2628H50.9463L50.947 48.9852ZM50.947 33.2994V40.0213H66.5873L66.5878 33.2994H50.947ZM50.947 54.586V59.9411C53.5009 59.8806 56.0073 59.237 58.2757 58.0592C60.8498 56.7304 63.6932 56.0096 66.588 55.9527V51.2249H50.9465L50.947 54.586Z" fill="#1363DF"/>
<path d="M32.4423 83.8345H37.6383V84.7225H33.4383V87.0145H35.6583C36.4263 87.0145 37.0343 87.2465 37.4823 87.7105C37.9383 88.1745 38.1663 88.7465 38.1663 89.4265C38.1663 90.1065 37.9423 90.6785 37.4943 91.1425C37.0463 91.6065 36.4343 91.8385 35.6583 91.8385H32.4423V83.8345ZM35.5383 87.9025H33.4383V90.9505H35.5383C36.0103 90.9505 36.3943 90.8105 36.6903 90.5305C36.9863 90.2425 37.1343 89.8745 37.1343 89.4265C37.1343 88.9785 36.9863 88.6145 36.6903 88.3345C36.3943 88.0465 36.0103 87.9025 35.5383 87.9025ZM43.9733 91.8385H43.0733V91.1785C42.5853 91.7145 41.9453 91.9825 41.1533 91.9825C40.6173 91.9825 40.1453 91.8105 39.7373 91.4665C39.3293 91.1225 39.1253 90.6545 39.1253 90.0625C39.1253 89.4545 39.3253 88.9865 39.7253 88.6585C40.1333 88.3225 40.6093 88.1545 41.1533 88.1545C41.9773 88.1545 42.6173 88.4185 43.0733 88.9465V87.9025C43.0733 87.5185 42.9373 87.2185 42.6653 87.0025C42.3933 86.7865 42.0413 86.6785 41.6093 86.6785C40.9293 86.6785 40.3373 86.9465 39.8333 87.4825L39.4133 86.8585C40.0293 86.2185 40.8013 85.8985 41.7293 85.8985C42.3933 85.8985 42.9333 86.0585 43.3493 86.3785C43.7653 86.6985 43.9733 87.1905 43.9733 87.8545V91.8385ZM41.4773 91.3345C42.1973 91.3345 42.7293 91.0945 43.0733 90.6145V89.5225C42.7293 89.0425 42.1973 88.8025 41.4773 88.8025C41.0613 88.8025 40.7173 88.9225 40.4453 89.1625C40.1813 89.3945 40.0493 89.6985 40.0493 90.0745C40.0493 90.4425 40.1813 90.7465 40.4453 90.9865C40.7173 91.2185 41.0613 91.3345 41.4773 91.3345ZM48.3334 91.9825C47.4774 91.9825 46.7814 91.6945 46.2454 91.1185C45.7094 90.5345 45.4414 89.8065 45.4414 88.9345C45.4414 88.0625 45.7094 87.3385 46.2454 86.7625C46.7814 86.1865 47.4774 85.8985 48.3334 85.8985C49.2294 85.8985 49.9374 86.2345 50.4574 86.9065L49.8574 87.4585C49.4894 86.9545 48.9974 86.7025 48.3814 86.7025C47.7734 86.7025 47.2854 86.9105 46.9174 87.3265C46.5574 87.7425 46.3774 88.2785 46.3774 88.9345C46.3774 89.5905 46.5574 90.1305 46.9174 90.5545C47.2854 90.9705 47.7734 91.1785 48.3814 91.1785C48.9894 91.1785 49.4814 90.9265 49.8574 90.4225L50.4574 90.9745C49.9374 91.6465 49.2294 91.9825 48.3334 91.9825ZM54.2748 91.9825C53.4188 91.9825 52.7228 91.6945 52.1868 91.1185C51.6508 90.5345 51.3828 89.8065 51.3828 88.9345C51.3828 88.0625 51.6508 87.3385 52.1868 86.7625C52.7228 86.1865 53.4188 85.8985 54.2748 85.8985C55.1708 85.8985 55.8788 86.2345 56.3988 86.9065L55.7988 87.4585C55.4308 86.9545 54.9388 86.7025 54.3228 86.7025C53.7148 86.7025 53.2268 86.9105 52.8588 87.3265C52.4988 87.7425 52.3188 88.2785 52.3188 88.9345C52.3188 89.5905 52.4988 90.1305 52.8588 90.5545C53.2268 90.9705 53.7148 91.1785 54.3228 91.1785C54.9308 91.1785 55.4228 90.9265 55.7988 90.4225L56.3988 90.9745C55.8788 91.6465 55.1708 91.9825 54.2748 91.9825ZM60.2763 91.9825C59.4123 91.9825 58.7043 91.7025 58.1523 91.1425C57.6003 90.5745 57.3243 89.8385 57.3243 88.9345C57.3243 88.0865 57.5963 87.3705 58.1403 86.7865C58.6843 86.1945 59.3643 85.8985 60.1803 85.8985C61.0363 85.8985 61.7123 86.1945 62.2083 86.7865C62.7123 87.3705 62.9643 88.1105 62.9643 89.0065V89.2345H58.2723C58.3123 89.8025 58.5203 90.2785 58.8963 90.6625C59.2723 91.0465 59.7603 91.2385 60.3603 91.2385C61.0803 91.2385 61.6763 90.9945 62.1483 90.5065L62.5803 91.0945C61.9883 91.6865 61.2203 91.9825 60.2763 91.9825ZM62.0763 88.5745C62.0683 88.0785 61.9003 87.6345 61.5723 87.2425C61.2443 86.8425 60.7763 86.6425 60.1683 86.6425C59.5923 86.6425 59.1363 86.8385 58.8003 87.2305C58.4723 87.6225 58.2963 88.0705 58.2723 88.5745H62.0763ZM65.286 91.8385H64.422V86.0425H65.322V90.4705L68.358 86.0425H69.246V91.8385H68.346V87.3265L65.286 91.8385ZM68.934 84.3265C68.414 85.0305 67.714 85.3825 66.834 85.3825C65.962 85.3825 65.258 85.0305 64.722 84.3265L65.166 83.9425C65.582 84.5185 66.138 84.8065 66.834 84.8065C67.538 84.8065 68.09 84.5185 68.49 83.9425L68.934 84.3265ZM71.9431 91.8385H71.0431V86.0425H71.9431V88.4545H74.9671V86.0425H75.8671V91.8385H74.9671V89.2465H71.9431V91.8385ZM77.6642 86.0425H78.5642V88.2865H80.7362C81.3122 88.2865 81.7602 88.4585 82.0802 88.8025C82.4002 89.1385 82.5602 89.5585 82.5602 90.0625C82.5602 90.5665 82.3962 90.9905 82.0682 91.3345C81.7482 91.6705 81.3042 91.8385 80.7362 91.8385H77.6642V86.0425ZM80.6402 89.0785H78.5642V91.0465H80.6402C80.9602 91.0465 81.2042 90.9585 81.3722 90.7825C81.5482 90.5985 81.6362 90.3585 81.6362 90.0625C81.6362 89.7665 81.5482 89.5305 81.3722 89.3545C81.2042 89.1705 80.9602 89.0785 80.6402 89.0785ZM84.4082 91.8385H83.5082V86.0425H84.4082V91.8385Z" fill="black"/>
</svg>
