<svg width="116" height="116" viewBox="0 0 116 116" fill="none" xmlns="http://www.w3.org/2000/svg">
<rect x="0.152588" width="115.254" height="115.581" rx="8" fill="#F5F5F5"/>
<path d="M57.8308 22.0963C60.2148 22.0963 62.2737 24.8515 63.6739 29.3012C64.0723 30.5659 64.4235 31.9771 64.7202 33.5051C66.1865 33 67.5789 32.6005 68.8686 32.3141C73.4127 31.3047 76.8194 31.7144 78.0103 33.7818L78.0468 33.8513C79.1698 35.9182 77.8203 39.0491 74.7149 42.4516C73.8207 43.4313 72.7767 44.443 71.6039 45.4658C72.3793 46.1428 73.0989 46.8148 73.7564 47.4766C74.1986 47.2551 74.6945 47.1304 75.2177 47.1304C76.1258 47.1304 76.946 47.4993 77.5413 48.0957C78.1342 48.6903 78.503 49.5167 78.503 50.4259C78.503 51.2601 78.1924 52.0248 77.6832 52.6045C78.051 53.3478 78.2927 54.0564 78.3939 54.7135C78.5344 55.6246 78.4142 56.4467 78.0108 57.1517C76.82 59.2208 73.4132 59.6301 68.8691 58.6208C67.5794 58.3339 66.1869 57.9354 64.7207 57.4298C64.424 58.9582 64.0723 60.3688 63.6744 61.6336C62.2742 66.083 60.2155 68.8385 57.8313 68.8385C55.4458 68.8385 53.3871 66.0834 51.9869 61.6336C51.589 60.3694 51.2373 58.9586 50.9406 57.4302C50.0607 57.7342 49.2067 57.9998 48.3869 58.225C48.3425 59.0606 47.9844 59.8155 47.4289 60.3744C46.8281 60.975 46.0069 61.3439 45.1053 61.3439C44.2032 61.3439 43.3821 60.975 42.7863 60.3786C42.4434 60.0342 42.1768 59.6167 42.0109 59.1537C41.1162 59.1199 40.326 58.9837 39.6642 58.7431C38.7584 58.4127 38.0736 57.8858 37.6498 57.1498L37.6281 57.1095C36.4793 55.0416 37.8273 51.8996 40.9452 48.4832C41.8395 47.5035 42.8834 46.4918 44.0567 45.4676C42.8834 44.4443 41.8395 43.4308 40.9452 42.4516C37.8458 39.0574 36.4936 35.9311 37.6059 33.8624L37.6905 33.7145C38.9164 31.7064 42.297 31.3167 46.7911 32.3145C48.0813 32.6013 49.4737 33.0008 50.94 33.5064C51.0712 32.8335 51.2126 32.1834 51.3642 31.5572C51.1503 31.4237 50.9534 31.2666 50.7759 31.0887C50.177 30.4862 49.8092 29.6626 49.8092 28.7594C49.8092 27.8543 50.177 27.0313 50.7718 26.4335C51.3725 25.8329 52.1938 25.464 53.0944 25.464C53.2525 25.464 53.4082 25.4751 53.5602 25.4974C54.0783 24.5571 54.6416 23.7951 55.2396 23.2377C56.0376 22.4957 56.9065 22.0967 57.8298 22.0967L57.8308 22.0963ZM73.7024 50.3074V50.3088L73.6992 50.3566V50.3667L73.6987 50.376V50.3857L73.6982 50.3955V50.4446L73.6992 50.4835V50.484L73.6996 50.5035V50.5039L73.701 50.5225V50.5229L73.7038 50.5609V50.5623C73.7371 50.928 73.8988 51.2579 74.1437 51.5031L74.1825 51.5443L74.2209 51.5796L74.2334 51.5893L74.2338 51.5907L74.2472 51.6013L74.2611 51.6125V51.6129L74.2745 51.6227L74.2759 51.624L74.2879 51.6333L74.2907 51.6352L74.3018 51.644L74.305 51.6468L74.3198 51.6574L74.3295 51.6648L74.3346 51.6681L74.3438 51.6746L74.3489 51.6787L74.3577 51.6848L74.3642 51.6894C74.4404 51.7404 74.5208 51.7858 74.6063 51.8229L74.6174 51.8275L74.6234 51.8303C74.6484 51.8409 74.6738 51.8507 74.6997 51.8599L74.7103 51.8641L74.7459 51.8761L74.75 51.8775L74.7639 51.8817L74.7671 51.8831L74.7819 51.8873L74.7847 51.8887L74.8 51.8928L74.8365 51.9026L74.8536 51.9072H74.8549L74.8716 51.9114L74.873 51.9118L74.8887 51.9151L74.8919 51.9155L74.9104 51.9197L74.9243 51.9225L74.9289 51.923L74.9423 51.9257L74.9474 51.9262L74.9598 51.929L74.9663 51.9294L74.9774 51.9313L74.9848 51.9327L74.9959 51.9341L75.0037 51.9355L75.0135 51.9369L75.0227 51.9382L75.0315 51.9396L75.0421 51.9401L75.05 51.9415L75.0611 51.942L75.0684 51.9433L75.0805 51.9438L75.0869 51.9443L75.0994 51.9457H75.1054L75.1193 51.9471H75.1239L75.1387 51.9475L75.1428 51.948L75.1586 51.9484H75.1613L75.1784 51.9489H75.257L75.263 51.9484H75.2778L75.293 51.948L75.2958 51.9475C75.6845 51.9276 76.0347 51.7612 76.2931 51.5031C76.5671 51.2278 76.7376 50.8455 76.7376 50.4247C76.7376 50.0034 76.5671 49.6211 76.2931 49.3463C76.0186 49.0701 75.6369 48.8991 75.2177 48.8991C74.7949 48.8991 74.415 49.0696 74.1433 49.3426C73.8933 49.5928 73.7301 49.9311 73.702 50.3061L73.7024 50.3074ZM76.1992 53.5719C75.9224 53.659 75.6308 53.7091 75.3286 53.7193L75.3133 53.7197H75.3036L75.2976 53.7202H75.2819L75.2666 53.7207H75.1779L75.1382 53.7202L75.1354 53.7197L75.0975 53.7193H75.0933L75.0564 53.7174H75.0513L75.0162 53.7156L75.0097 53.7151L74.9764 53.7132L74.9676 53.7128L74.9357 53.71L74.9265 53.7095L74.8955 53.7063L74.8849 53.7049L74.8558 53.7021L74.8179 53.6975H74.8161L74.8027 53.6956L74.7763 53.6924L74.7615 53.6905L74.737 53.6873L74.7213 53.6845L74.6973 53.6803L74.6807 53.6776L74.658 53.6734L74.64 53.6706L74.6187 53.6664L74.6136 53.665L74.5799 53.659C74.4769 53.6386 74.3757 53.6127 74.2754 53.5821L74.2458 53.5733L74.2384 53.5705L74.2342 53.5691C73.7472 53.4153 73.3086 53.1497 72.9472 52.8026L72.8955 52.7563C72.3562 52.2154 72.0036 51.4887 71.9426 50.6796V50.6778L71.9393 50.6379V50.6365L71.9366 50.5953V50.5948L71.9352 50.5536V50.5522L71.9338 50.5109V50.5105L71.9324 50.4687V50.3839L71.9329 50.3626L71.9333 50.3422V50.3418L71.9338 50.3204L71.9342 50.3005V50.2991L71.9347 50.2773V50.2746C71.9361 50.2472 71.9379 50.2203 71.9398 50.193L71.9412 50.1749V50.1717L71.9444 50.129L71.9463 50.1087C71.98 49.7602 72.0678 49.4279 72.2023 49.1192L72.2235 49.0655C72.2868 48.9246 72.3613 48.7888 72.4444 48.6595C71.7748 47.9898 71.0369 47.3063 70.2369 46.6167C68.8445 47.747 67.3057 48.881 65.6453 49.9891C65.5177 51.9897 65.3079 53.8972 65.0274 55.674C66.5247 56.2009 67.9425 56.6125 69.2466 56.9017C73.012 57.7377 75.7237 57.5941 76.4857 56.27C76.6817 55.9294 76.7357 55.4938 76.6562 54.984C76.5906 54.5572 76.4353 54.084 76.1969 53.5724L76.1992 53.5719ZM45.2427 56.5305H45.2413L45.2247 56.5291H45.2228L45.2076 56.5277H45.2034L45.184 56.5263L45.1734 56.5259H45.1641L45.1567 56.5254H45.1396L45.1248 56.5249H45.0851L45.0463 56.5259H45.0458L45.0264 56.5263H45.0259L45.0075 56.5277H45.007L44.9691 56.5305H44.9677C44.6031 56.5639 44.2741 56.7261 44.0296 56.9717L43.9885 57.0116L43.9534 57.05L43.9437 57.0621L43.9423 57.0635L43.9316 57.076V57.0764L43.9205 57.0899L43.9201 57.0903L43.9104 57.1029L43.909 57.1047L43.8997 57.1168L43.8979 57.1195C43.8272 57.2118 43.7667 57.3128 43.7186 57.4203L43.7135 57.4324L43.7117 57.437C43.6992 57.4657 43.6876 57.4949 43.6775 57.5241L43.6747 57.5306L43.6705 57.5413L43.6585 57.577L43.6571 57.5816L43.653 57.595L43.6516 57.5983L43.6474 57.6131L43.646 57.6159L43.6419 57.6316L43.6414 57.633L43.6368 57.6497V57.6502L43.6322 57.6682L43.6276 57.6854V57.6859L43.6229 57.7044L43.6197 57.7201L43.6192 57.7229L43.616 57.7382L43.6155 57.7415L43.6128 57.7563L43.6123 57.7605L43.6095 57.7744L43.6091 57.7795L43.6063 57.792L43.6058 57.798L43.604 57.8101L43.6026 57.8175L43.6012 57.8281L43.5998 57.836L43.5984 57.8457L43.5957 57.8643L43.5952 57.874L43.5938 57.8819L43.5934 57.893L43.592 57.9004L43.5915 57.9125L43.5911 57.919L43.5897 57.9315V57.9375L43.5883 57.9514V57.956L43.5878 57.9709L43.5874 57.975L43.5869 57.9908V57.9936L43.5864 58.0103V58.0501L43.5897 58.1502C43.6142 58.5344 43.7777 58.8769 44.0278 59.1276C44.3036 59.4052 44.684 59.5748 45.1068 59.5748C45.5278 59.5748 45.91 59.4047 46.1822 59.1322C46.4581 58.8556 46.6281 58.4741 46.6281 58.0501C46.6281 57.6279 46.4581 57.2447 46.184 56.9698C45.94 56.7252 45.6105 56.5629 45.2436 56.5305H45.2427ZM46.1882 54.9391C46.2321 54.9548 46.2751 54.9711 46.318 54.9882L46.343 54.9979L46.3504 55.0012C46.7548 55.1676 47.1194 55.4132 47.4248 55.72L47.4461 55.7418L47.4526 55.7482L47.46 55.7561L47.4747 55.771L47.5025 55.8006L47.5076 55.8057L47.5163 55.815L47.5302 55.8303L47.5344 55.8349L47.5441 55.8456L47.5575 55.8609L47.5607 55.865L47.5847 55.8914L47.5875 55.8947L47.6115 55.9225L47.6134 55.9253L47.6245 55.9387L47.6379 55.9545L47.6383 55.9559L47.6503 55.9698L47.6637 55.9855V55.986L47.6887 56.017V56.0175C47.7053 56.0379 47.7211 56.0592 47.7372 56.0801L47.7391 56.0828L47.7603 56.1125L47.7631 56.1157L47.7751 56.1324L47.7844 56.1449L47.8223 56.2001L47.8297 56.2098L47.8343 56.2163L47.8454 56.2335L47.8514 56.2427L47.8565 56.2506L47.8675 56.2677L47.8726 56.2756L47.8786 56.2849L47.8893 56.302L47.8939 56.3095L47.9004 56.3201L47.911 56.3373L47.9151 56.3433L47.9216 56.3553L47.9322 56.3725L47.9355 56.3776L47.9429 56.3901L47.9535 56.4082L47.9553 56.4123L47.9632 56.4262L47.9738 56.4443L47.9752 56.4471L47.984 56.4624L47.9937 56.4809L47.9942 56.4823L48.0029 56.499C48.8454 56.2654 49.7239 55.9878 50.632 55.669C50.3515 53.8931 50.1422 51.9866 50.0151 49.9877C48.3533 48.8787 46.8131 47.7443 45.4206 46.6135C44.2131 47.6535 43.146 48.6805 42.2417 49.6709C39.6769 52.4797 38.4482 54.878 39.1427 56.2135L39.2097 56.3303C39.4186 56.6557 39.7795 56.9068 40.2648 57.0834C40.714 57.2465 41.2602 57.3467 41.8883 57.3842C41.898 57.3365 41.9086 57.2892 41.9206 57.2424L41.9238 57.2289L41.928 57.2136C42.0264 56.8387 42.19 56.4884 42.4058 56.1769L42.4216 56.1538C42.5163 56.0189 42.6212 55.8915 42.7344 55.7728L42.7829 55.7191C43.3222 55.1782 44.0469 54.8246 44.8537 54.7635H44.8556L44.8953 54.7602H44.8967L44.9378 54.7584H44.9383L44.9794 54.7565H44.9808L45.0219 54.7551H45.0224L45.064 54.7547H45.0644L45.106 54.7542L45.143 54.7547H45.1587L45.1906 54.7551L45.2156 54.7556L45.2322 54.7561L45.2516 54.7565L45.2743 54.7579L45.2881 54.7584L45.3158 54.7598L45.3246 54.7602L45.3579 54.763H45.3607L45.3963 54.7663H45.3995L45.4318 54.7695L45.4406 54.77L45.4683 54.7727L45.4817 54.7746L45.5035 54.7774L45.5229 54.7792L45.5395 54.7811L45.564 54.7843L45.5746 54.7862L45.6051 54.7908L45.6102 54.7913L45.6453 54.7964L45.6805 54.8024L45.6855 54.8038L45.7147 54.8089L45.7498 54.8154L45.7655 54.8186L45.784 54.8228L45.8057 54.8274L45.8182 54.8302L45.8454 54.8362L45.8528 54.8381L45.8847 54.846L45.8875 54.8464L45.9212 54.8552L45.9245 54.8557L45.9554 54.8636L46.0229 54.883L46.0409 54.8881L46.0562 54.8928L46.0802 54.9002L46.0899 54.903L46.1186 54.9122L46.1232 54.9141L46.1564 54.9248L46.1897 54.9359L46.1882 54.9391ZM52.6435 30.2171L52.8339 30.2621C52.8584 30.2667 52.8843 30.27 52.9093 30.2732L53.096 30.2843H53.1158L53.1357 30.2839L53.1745 30.2829H53.175L53.1944 30.2816L53.2327 30.2788H53.2332L53.2517 30.2769H53.2522C53.6089 30.2403 53.931 30.079 54.1713 29.8376L54.2129 29.7977L54.2471 29.7593L54.2577 29.7472L54.2582 29.7468L54.2693 29.7333L54.2799 29.7199L54.2804 29.7185L54.291 29.706L54.2924 29.7046L54.3016 29.6925L54.3035 29.6898L54.3123 29.6786L54.3141 29.6754L54.3252 29.6606L54.3326 29.6508L54.3358 29.6457L54.3423 29.6365L54.3465 29.6304C54.3603 29.6105 54.3737 29.5901 54.3867 29.5693L54.3899 29.5642L54.3959 29.5535C54.4186 29.5178 54.4389 29.4798 54.4574 29.4418L54.4578 29.4404C54.4666 29.4237 54.4745 29.4066 54.4819 29.3899L54.4869 29.3779L54.4888 29.3728C54.5013 29.344 54.5128 29.3158 54.5239 29.2866L54.5267 29.2792L54.5299 29.2685L54.5419 29.2333L54.5433 29.2286L54.548 29.2152L54.5493 29.211L54.5535 29.1962L54.554 29.1934L54.5586 29.1781L54.559 29.1763L54.5683 29.142L54.5724 29.1248L54.5729 29.1234L54.5771 29.1068V29.1054L54.5812 29.0896L54.5849 29.0674L54.5882 29.0535L54.5886 29.0488L54.5914 29.0354L54.5919 29.0303L54.5946 29.0178L54.5951 29.0113L54.5969 29.0002L54.5983 28.9928L54.5997 28.9816L54.6011 28.9738L54.6025 28.964L54.6039 28.9548L54.6043 28.9455L54.6057 28.9358L54.6062 28.9279L54.6076 28.9168L54.608 28.9093L54.6094 28.8973L54.6099 28.8908L54.6103 28.8783L54.6108 28.8723L54.6113 28.8584L54.6117 28.8537L54.6122 28.8389V28.8347L54.6126 28.819L54.6131 28.8162V28.7972L54.6136 28.7791V28.7305L54.6131 28.7207V28.7161L54.6126 28.7013L54.6122 28.686V28.6813L54.6117 28.6716L54.6113 28.6623V28.6572L54.6099 28.6424L54.6094 28.6276L54.6089 28.6229L54.6048 28.5845C54.565 28.2323 54.4061 27.9162 54.1709 27.6798C53.8968 27.405 53.5146 27.2345 53.0936 27.2345C52.6708 27.2345 52.2909 27.405 52.0192 27.678C51.7433 27.9547 51.5733 28.3384 51.5733 28.7601C51.5733 29.1842 51.7433 29.5651 52.0146 29.8376C52.1879 30.0114 52.4018 30.143 52.6412 30.2171H52.6435ZM55.1755 26.2117C55.2587 26.2807 55.3391 26.3535 55.4158 26.4299C55.4398 26.454 55.4629 26.4786 55.486 26.5031L55.4966 26.5143L55.4985 26.5161L55.5064 26.5249L55.517 26.5361L55.5248 26.5453L55.5267 26.5472L55.5373 26.5583C55.6418 26.6751 55.7383 26.7993 55.8257 26.93C55.9126 27.0588 55.9897 27.1946 56.0572 27.3355L56.0604 27.3429L56.0738 27.3702L56.0743 27.3721L56.0854 27.3971L56.0905 27.4082L56.0979 27.424L56.1071 27.4444L56.1099 27.4509L56.1219 27.4782L56.1233 27.481L56.1339 27.506L56.1385 27.5181L56.145 27.5338L56.1455 27.5352L56.1552 27.5616L56.1663 27.5894L56.1676 27.5927L56.1769 27.6172L56.1866 27.646L56.1954 27.6687L56.1972 27.6747C56.2601 27.8541 56.3077 28.0408 56.3386 28.2327L56.3433 28.26V28.2628L56.3479 28.2934L56.3557 28.3546L56.359 28.3833L56.3594 28.3861L56.3627 28.4167L56.3631 28.4245L56.3659 28.4473L56.3673 28.4658L56.3687 28.4783L56.3705 28.5075V28.5094L56.3733 28.5399L56.3738 28.5492L56.3751 28.571L56.3756 28.5909L56.3761 28.602L56.3775 28.6326V28.6331L56.3788 28.6651V28.6743L56.3793 28.6961V28.7165L56.3798 28.7272V28.7591L56.3793 28.7995V28.8008L56.3788 28.8407V28.8435L56.3775 28.8815V28.8857L56.3761 28.9227L56.3756 28.9278L56.3738 28.9631V28.9695L56.371 29.0029L56.3705 29.0117L56.3677 29.0437L56.3673 29.053L56.3645 29.0835L56.3631 29.0947L56.3599 29.1239L56.3557 29.1619L56.3553 29.1637L56.3539 29.1772L56.3506 29.2036L56.3488 29.2184L56.3446 29.243L56.3428 29.2587L56.3386 29.2828L56.3359 29.2995L56.3317 29.3222L56.3285 29.3403L56.3243 29.3616L56.3238 29.3667L56.3174 29.4001C56.297 29.5043 56.2712 29.6058 56.2411 29.7059L56.2323 29.7356L56.2296 29.743C56.0761 30.2329 55.8109 30.6745 55.4638 31.0378L55.4167 31.0897C54.8774 31.6306 54.1527 31.9842 53.3459 32.0458H53.3445L53.3043 32.0486H53.3029L53.2627 32.0514H53.2613L53.2202 32.0532H53.2197L53.1782 32.0537L53.1366 32.0551H53.0548C52.8967 32.7141 52.7498 33.4027 52.6153 34.1188C54.2887 34.763 56.0391 35.5337 57.8285 36.423C59.6178 35.5337 61.3679 34.7635 63.0408 34.1188C62.7464 32.5533 62.3938 31.1149 61.9909 29.8353C60.8314 26.1492 59.3513 23.8677 57.8294 23.8677C57.3701 23.8677 56.901 24.0994 56.4379 24.5299C56.0012 24.9373 55.5765 25.5041 55.1735 26.2122L55.1755 26.2117ZM65.0293 35.2625C65.3099 37.0397 65.5197 38.9468 65.6467 40.9469C66.7378 41.6741 67.7735 42.411 68.7462 43.1469C69.2615 43.5371 69.7605 43.9291 70.2425 44.3207C71.4495 43.2808 72.5162 42.2538 73.42 41.2639C75.9848 38.455 77.2135 36.0567 76.519 34.7212L76.4594 34.6202C75.6613 33.3388 72.9694 33.2072 69.2484 34.0344C67.9443 34.3236 66.5265 34.7351 65.0292 35.2621L65.0293 35.2625ZM63.3426 35.8909C62.191 36.3441 61.0005 36.859 59.7865 37.4323C60.458 37.7933 61.1336 38.1696 61.8101 38.5612L61.854 38.5885C62.5143 38.9709 63.1604 39.3588 63.7907 39.7513C63.6789 38.4096 63.5282 37.1186 63.3429 35.8909L63.3426 35.8909ZM57.8318 38.3967C56.8141 38.9194 55.7837 39.4811 54.7489 40.0803L54.7064 40.1044C53.6768 40.7008 52.6814 41.3116 51.7262 41.9312C51.6684 43.0814 51.6384 44.2622 51.6384 45.468C51.6384 46.6725 51.6689 47.8537 51.7262 49.0049C52.6805 49.6236 53.6736 50.2334 54.7013 50.8285L54.7336 50.847C55.7734 51.4495 56.809 52.0144 57.8318 52.54C58.8401 52.0224 59.8591 51.4672 60.8808 50.8763L60.9557 50.8318C61.9853 50.2354 62.9797 49.6246 63.9358 49.005C63.9936 47.8539 64.0237 46.6726 64.0237 45.4682C64.0237 44.2638 63.9932 43.082 63.9349 41.9304C62.9825 41.3126 61.994 40.7056 60.9741 40.1133L60.9279 40.0887C59.8881 39.4863 58.8535 38.9223 57.8312 38.3967L57.8318 38.3967ZM49.911 43.1505C48.8083 43.9184 47.7691 44.6943 46.8023 45.4677C47.7691 46.2416 48.8079 47.0173 49.9105 47.7848C49.886 47.0225 49.8735 46.249 49.8735 45.4677C49.8735 44.6868 49.8869 43.9133 49.9114 43.1505H49.911ZM52.319 55.0417C52.8181 54.8461 53.3237 54.6381 53.8357 54.4193C54.5067 54.1334 55.187 53.8275 55.8745 53.5026C55.2068 53.1444 54.5353 52.7699 53.862 52.3807L53.8176 52.3547C53.1554 51.9705 52.5061 51.5803 51.8716 51.1855C51.9834 52.5262 52.1336 53.8155 52.3189 55.0417L52.319 55.0417ZM65.7524 47.7853C66.8537 47.0174 67.8925 46.2425 68.8588 45.4694C68.479 45.1654 68.088 44.861 67.6864 44.5569C67.0649 44.0866 66.4197 43.618 65.7529 43.1527C65.7774 43.9137 65.7898 44.6863 65.7898 45.4681C65.7898 46.2499 65.7764 47.0229 65.7529 47.7852L65.7524 47.7853ZM63.7912 51.1855C63.1511 51.5845 62.4963 51.9779 61.8271 52.3654L61.7582 52.4024C61.0979 52.7838 60.4402 53.1509 59.7849 53.5026C61.0003 54.0768 62.1912 54.5917 63.3438 55.0449C63.5286 53.8177 63.6792 52.5271 63.7911 51.1855L63.7912 51.1855ZM57.8312 54.5134C56.7087 55.0714 55.6037 55.5825 54.5256 56.0423C53.8805 56.3185 53.2446 56.5766 52.6194 56.8176C52.9138 58.3835 53.2664 59.8216 53.6694 61.1011C54.8288 64.7872 56.3089 67.0687 57.8322 67.0687C59.354 67.0687 60.8347 64.7873 61.9937 61.1011C62.3966 59.8216 62.7492 58.3831 63.0436 56.8176C61.3702 56.1735 59.6193 55.4027 57.8305 54.5134L57.8312 54.5134ZM45.4223 44.3216C46.8151 43.1908 48.3559 42.0559 50.0172 40.9465C50.0879 39.8375 50.184 38.7553 50.3023 37.708C50.3985 36.8696 50.5094 36.0536 50.6346 35.262C49.1364 34.7355 47.719 34.3235 46.415 34.0343C42.6615 33.2015 39.9558 33.3415 39.1827 34.6535L39.1753 34.6669C38.4137 35.9887 39.642 38.4138 42.2429 41.2625C43.1473 42.2533 44.2143 43.2813 45.4219 44.3216L45.4223 44.3216ZM51.8722 39.7508C52.5127 39.3518 53.168 38.9579 53.8366 38.5705L53.863 38.5552C54.5368 38.1654 55.2082 37.7905 55.8765 37.4323C54.6615 36.8581 53.4716 36.3432 52.3191 35.8909C52.2207 36.5457 52.131 37.2196 52.0525 37.9097C51.9845 38.5107 51.924 39.1252 51.8718 39.7513L51.8722 39.7508Z" fill="#1363DF"/>
<path d="M57.8307 40.9564C59.072 40.9564 60.1982 41.4634 61.0111 42.2781C61.8235 43.0924 62.3281 44.2232 62.3281 45.4675C62.3281 46.7118 61.824 47.8417 61.0111 48.6568C60.1987 49.4716 59.072 49.9786 57.8307 49.9786C56.5885 49.9786 55.4623 49.4716 54.6499 48.6568C53.8375 47.8421 53.3323 46.7132 53.3323 45.4675C53.3323 44.2213 53.8374 43.0923 54.6499 42.2781L54.7095 42.2239C55.5187 41.4388 56.6227 40.9564 57.8307 40.9564L57.8307 40.9564ZM59.7628 43.5298C59.2693 43.0339 58.5849 42.7262 57.8307 42.7262C57.0964 42.7262 56.4286 43.014 55.9406 43.4825L55.8976 43.5298C55.404 44.0247 55.0967 44.711 55.0967 45.4674C55.0967 46.2237 55.4036 46.91 55.8976 47.405C56.3921 47.9009 57.076 48.2086 57.8307 48.2086C58.5849 48.2086 59.2693 47.9008 59.7628 47.405C60.2564 46.91 60.5628 46.2237 60.5628 45.4674C60.5628 44.711 60.2564 44.0247 59.7628 43.5298L59.7628 43.5298Z" fill="#1363DF"/>
<path d="M31.9322 91.8385H30.7322L28.1762 88.4305L25.6202 91.8385H24.4082L27.5282 87.7345L24.5882 83.8345H25.8002L28.1762 87.0385L30.5402 83.8345H31.7522L28.8242 87.7225L31.9322 91.8385ZM33.8563 91.8385H32.9923V86.0425H33.8923V90.4705L36.9283 86.0425H37.8163V91.8385H36.9163V87.3265L33.8563 91.8385ZM45.5294 91.8385H44.6294V87.2905L42.7454 91.8385H42.4094L40.5134 87.2905V91.8385H39.6134V86.0425H40.8014L42.5774 90.3385L44.3294 86.0425H45.5294V91.8385ZM48.1883 91.8385H47.3243V86.0425H48.2243V90.4705L51.2603 86.0425H52.1483V91.8385H51.2483V87.3265L48.1883 91.8385ZM53.8254 86.0425H54.7254V87.6745C54.7254 88.1945 54.8454 88.5545 55.0854 88.7545C55.3254 88.9545 55.6974 89.0545 56.2014 89.0545C56.8254 89.0545 57.3374 88.9505 57.7374 88.7425V86.0425H58.6374V91.8385H57.7374V89.4745C57.2254 89.7305 56.6374 89.8585 55.9734 89.8585C55.2214 89.8585 54.6734 89.7065 54.3294 89.4025C53.9934 89.0985 53.8254 88.6145 53.8254 87.9505V86.0425ZM63.0536 91.9825C62.1896 91.9825 61.4816 91.7025 60.9296 91.1425C60.3776 90.5745 60.1016 89.8385 60.1016 88.9345C60.1016 88.0865 60.3736 87.3705 60.9176 86.7865C61.4616 86.1945 62.1416 85.8985 62.9576 85.8985C63.8136 85.8985 64.4896 86.1945 64.9856 86.7865C65.4896 87.3705 65.7416 88.1105 65.7416 89.0065V89.2345H61.0496C61.0896 89.8025 61.2976 90.2785 61.6736 90.6625C62.0496 91.0465 62.5376 91.2385 63.1376 91.2385C63.8576 91.2385 64.4536 90.9945 64.9256 90.5065L65.3576 91.0945C64.7656 91.6865 63.9976 91.9825 63.0536 91.9825ZM64.8536 88.5745C64.8456 88.0785 64.6776 87.6345 64.3496 87.2425C64.0216 86.8425 63.5536 86.6425 62.9456 86.6425C62.3696 86.6425 61.9136 86.8385 61.5776 87.2305C61.2496 87.6225 61.0736 88.0705 61.0496 88.5745H64.8536ZM69.7553 91.9825C68.8993 91.9825 68.2033 91.6945 67.6673 91.1185C67.1313 90.5345 66.8633 89.8065 66.8633 88.9345C66.8633 88.0625 67.1313 87.3385 67.6673 86.7625C68.2033 86.1865 68.8993 85.8985 69.7553 85.8985C70.6513 85.8985 71.3593 86.2345 71.8793 86.9065L71.2793 87.4585C70.9113 86.9545 70.4193 86.7025 69.8033 86.7025C69.1953 86.7025 68.7073 86.9105 68.3393 87.3265C67.9793 87.7425 67.7993 88.2785 67.7993 88.9345C67.7993 89.5905 67.9793 90.1305 68.3393 90.5545C68.7073 90.9705 69.1953 91.1785 69.8033 91.1785C70.4113 91.1785 70.9033 90.9265 71.2793 90.4225L71.8793 90.9745C71.3593 91.6465 70.6513 91.9825 69.7553 91.9825ZM78.2407 91.8385H77.0887L75.0007 89.2345L74.0407 90.1825V91.8385H73.1407V86.0425H74.0407V89.1265L77.0887 86.0425H78.2287L75.6607 88.6705L78.2407 91.8385ZM83.8288 91.8385H82.9288V91.1785C82.4408 91.7145 81.8008 91.9825 81.0088 91.9825C80.4728 91.9825 80.0008 91.8105 79.5928 91.4665C79.1848 91.1225 78.9808 90.6545 78.9808 90.0625C78.9808 89.4545 79.1808 88.9865 79.5808 88.6585C79.9888 88.3225 80.4648 88.1545 81.0088 88.1545C81.8328 88.1545 82.4728 88.4185 82.9288 88.9465V87.9025C82.9288 87.5185 82.7928 87.2185 82.5208 87.0025C82.2488 86.7865 81.8968 86.6785 81.4648 86.6785C80.7848 86.6785 80.1928 86.9465 79.6888 87.4825L79.2688 86.8585C79.8848 86.2185 80.6568 85.8985 81.5848 85.8985C82.2488 85.8985 82.7888 86.0585 83.2048 86.3785C83.6208 86.6985 83.8288 87.1905 83.8288 87.8545V91.8385ZM81.3328 91.3345C82.0528 91.3345 82.5848 91.0945 82.9288 90.6145V89.5225C82.5848 89.0425 82.0528 88.8025 81.3328 88.8025C80.9168 88.8025 80.5728 88.9225 80.3008 89.1625C80.0368 89.3945 79.9048 89.6985 79.9048 90.0745C79.9048 90.4425 80.0368 90.7465 80.3008 90.9865C80.5728 91.2185 80.9168 91.3345 81.3328 91.3345ZM86.4969 91.8385H85.4409L86.9889 89.5585C86.5489 89.5025 86.1889 89.3185 85.9089 89.0065C85.6369 88.6945 85.5009 88.2985 85.5009 87.8185C85.5009 87.3065 85.6649 86.8825 85.9929 86.5465C86.3209 86.2105 86.7689 86.0425 87.3369 86.0425H90.3969V91.8385H89.4969V89.5945H87.9129L86.4969 91.8385ZM87.4329 88.8025H89.4969V86.8345H87.4329C87.1209 86.8345 86.8729 86.9265 86.6889 87.1105C86.5129 87.2865 86.4249 87.5225 86.4249 87.8185C86.4249 88.1145 86.5129 88.3545 86.6889 88.5385C86.8649 88.7145 87.1129 88.8025 87.4329 88.8025Z" fill="black"/>
</svg>
