<svg width="121" height="122" viewBox="0 0 121 122" fill="none" xmlns="http://www.w3.org/2000/svg">
<circle cx="60.2115" cy="60.9774" r="60.2115" fill="white"/>
<path d="M69.7633 38.4776C69.7128 38.4776 69.6628 38.478 69.6123 38.48C68.9382 38.5019 68.2752 38.6869 67.6759 39.0287L37.2122 56.3915C35.8792 57.1512 35.1339 58.536 35.1402 59.9552C35.1431 60.6408 35.323 61.3344 35.694 61.9693L41.4078 71.7404V79.3865C41.4078 81.6428 43.2817 83.4774 45.5863 83.4774H81.1036C83.4086 83.4778 85.283 81.6432 85.283 79.3869V56.8878C85.283 54.6315 83.409 52.7969 81.1045 52.7969H80.5242L73.3484 40.5247C72.7925 39.576 71.8947 38.8977 70.8201 38.6159C70.4706 38.5244 70.1162 38.4786 69.7634 38.4774L69.7633 38.4776ZM69.7811 40.5228C69.9473 40.5252 70.1144 40.5479 70.2795 40.5916C70.813 40.7313 71.2576 41.069 71.5343 41.5415L71.5368 41.5456L51.7977 52.7967H47.6738L68.7279 40.7961C69.0534 40.6107 69.4153 40.5171 69.7814 40.5224L69.7811 40.5228ZM72.5745 43.3203L73.6056 45.0838L60.0742 52.7966H55.949L72.5742 43.3207L72.5745 43.3203ZM74.6437 46.8589L78.1158 52.7966H64.2265L74.6437 46.8589ZM45.5872 54.8419H81.1045C82.2563 54.8419 83.1939 55.7598 83.1939 56.8875V79.3867C83.1939 80.5144 82.2563 81.4323 81.1045 81.4323H45.5872C44.4353 81.4323 43.4978 80.5143 43.4978 79.3867V56.8875C43.4978 55.7598 44.4354 54.8419 45.5872 54.8419ZM41.4653 56.3344C41.4396 56.517 41.4082 56.698 41.4082 56.8871V58.7181L37.5048 60.9427C36.9402 59.9677 37.2789 58.7209 38.2629 58.1593L41.4649 56.3344H41.4653ZM41.4082 61.0849V63.4363L39.5723 64.4826L38.5408 62.7187L41.4082 61.0844L41.4082 61.0849ZM41.4082 65.803V67.6223L40.6104 66.2578L41.4082 65.803ZM48.7209 69.1598C48.1435 69.1598 47.6762 69.6169 47.6762 70.1826C47.6762 70.7479 48.1435 71.2054 48.7209 71.2054H59.167C59.7443 71.2054 60.2117 70.7479 60.2117 70.1826C60.2117 69.6173 59.7443 69.1598 59.167 69.1598H48.7209ZM70.7883 69.1598C68.4123 69.1598 66.4791 70.9944 66.4791 73.2507C66.4791 75.5069 68.4123 77.3416 70.7883 77.3416C71.4741 77.3416 72.14 77.1857 72.7471 76.8861C73.3542 77.1857 74.0201 77.3416 74.7059 77.3416C77.0819 77.3416 79.015 75.5069 79.015 73.2507C79.015 70.9944 77.0819 69.1598 74.7059 69.1598C74.0201 69.1598 73.3542 69.3157 72.7471 69.6153C72.1399 69.3157 71.4741 69.1598 70.7883 69.1598ZM70.7883 71.2054C71.271 71.2054 71.735 71.3552 72.1341 71.6378C72.4993 71.8974 72.9952 71.8974 73.3604 71.6378C73.7591 71.3552 74.2236 71.2054 74.7063 71.2054C75.9305 71.2054 76.926 72.1233 76.926 73.2506C76.926 74.3783 75.9301 75.2962 74.7059 75.2962C74.2232 75.2962 73.7591 75.146 73.36 74.8637C73.1772 74.7338 72.9621 74.669 72.7471 74.669C72.532 74.669 72.3165 74.7338 72.1341 74.8637C71.7354 75.1464 71.271 75.2962 70.7883 75.2962C69.5641 75.2962 68.5681 74.3782 68.5681 73.2506C68.5681 72.1229 69.564 71.2054 70.7883 71.2054H70.7883ZM48.7209 75.2963C48.1435 75.2963 47.6762 75.7535 47.6762 76.3191C47.6762 76.8844 48.1435 77.3419 48.7209 77.3419H63.345C63.9224 77.3419 64.3897 76.8844 64.3897 76.3191C64.3897 75.7539 63.9224 75.2963 63.345 75.2963H48.7209Z" fill="#1363DF"/>
</svg>
