<svg width="116" height="116" viewBox="0 0 116 116" fill="none" xmlns="http://www.w3.org/2000/svg">
<rect width="115.254" height="115.581" rx="8" fill="#F5F5F5"/>
<path d="M56.6527 58.8697L51.365 66.9312C50.7408 67.8766 49.7669 68.5341 48.6587 68.7588C48.3954 68.8114 48.128 68.8381 47.8593 68.8385C47.0771 68.8402 46.3124 68.6061 45.6649 68.1662C44.7397 67.546 44.1163 66.5652 43.9468 65.4625C43.7711 64.3634 44.0529 63.2401 44.7262 62.3554L52.0002 52.8948C52.3364 52.4586 52.961 52.3785 53.3956 52.7153C53.8301 53.0521 53.9104 53.6788 53.5746 54.1146L46.3005 63.5753H46.3001C45.959 64.0262 45.8189 64.5988 45.9131 65.1569C46.0069 65.7151 46.3267 66.2096 46.7969 66.5229C47.2343 66.8162 47.7712 66.9205 48.2864 66.8117C48.8737 66.6938 49.3901 66.3463 49.7215 65.8457L54.9896 57.7743C55.2951 57.3254 55.9033 57.2051 56.3558 57.5041C56.8084 57.8031 56.9386 58.4109 56.6478 58.8697L56.6527 58.8697ZM77.5473 23.1783C75.6953 21.8537 73.1777 21.7544 70.467 22.9043H70.4666C67.671 24.1854 65.2763 26.2064 63.5403 28.75C61.0277 32.2854 59.851 36.3334 60.3974 39.5796C60.5182 40.3312 60.4514 41.1009 60.2037 41.8204C60.0267 42.3412 60.3044 42.9076 60.8241 43.0849C61.3438 43.2624 61.9086 42.9835 62.0855 42.4627C62.439 41.431 62.5331 40.3274 62.3583 39.2509C61.9065 36.5522 62.9787 32.972 65.1588 29.9048C66.6769 27.6636 68.7743 25.8786 71.2263 24.741C73.2817 23.8744 75.1092 23.8945 76.38 24.8058C77.6513 25.7172 78.2717 27.4398 78.1226 29.6708H78.123C77.8519 32.3671 76.8551 34.9386 75.2381 37.11C73.0781 40.1821 70.0294 42.3679 67.3383 42.816C66.2874 42.9975 65.2959 43.4317 64.4486 44.081C64.2172 44.258 63.9968 44.4494 63.7884 44.6535C63.4271 45.0424 63.4337 45.6474 63.8039 46.0277C64.1742 46.4084 64.777 46.4302 65.1734 46.0774C65.3303 45.9295 65.4961 45.7915 65.6702 45.6642C66.2595 45.2104 66.9492 44.9065 67.6811 44.7779C70.9235 44.2354 74.3543 41.7904 76.8718 38.2649C78.7021 35.7916 79.8263 32.8657 80.1241 29.8001C80.3027 26.8574 79.3894 24.5019 77.5472 23.1779L77.5473 23.1783ZM55.8737 41.2879C55.8279 41.2062 55.8279 41.106 55.8737 41.0242C56.7539 39.029 56.52 36.7163 55.2582 34.9396L46.3902 22.5307C46.2395 22.3094 46.006 22.1582 45.7427 22.1114C45.4794 22.065 45.2086 22.1266 44.9912 22.2831C44.7737 22.4391 44.6287 22.6765 44.5882 22.9419C44.5476 23.2068 44.6156 23.477 44.7762 23.691L53.6343 36.0998C54.4894 37.3024 54.6479 38.868 54.0512 40.218C53.8837 40.5872 53.819 40.9951 53.8636 41.398C53.9083 41.8013 54.0606 42.1849 54.3047 42.5085L70.6899 63.7598V63.7594C71.0167 64.1705 71.1608 64.6979 71.0892 65.2182C71.0171 65.739 70.7353 66.2072 70.3094 66.5131C69.883 66.8195 69.3506 66.9366 68.8358 66.838C68.321 66.739 67.8697 66.4326 67.5867 65.9903L52.7207 43.633C52.4951 43.2937 52.1822 43.0218 51.8152 42.8469C51.4478 42.6715 51.0403 42.5988 50.6353 42.637C49.1687 42.7725 47.7398 42.1211 46.8768 40.9239L38.0334 28.5456C37.8831 28.3242 37.6496 28.173 37.3863 28.1262C37.1229 28.0794 36.8518 28.1414 36.6347 28.2975C36.4173 28.4536 36.2723 28.6914 36.2317 28.9563C36.1912 29.2212 36.2592 29.4914 36.4197 29.7058L45.2729 42.1094C46.5478 43.8824 48.6632 44.8468 50.8338 44.6438C50.9276 44.6291 51.0218 44.6652 51.0824 44.7383L65.9284 67.0904C66.5108 67.9767 67.4294 68.585 68.4709 68.7735C68.7052 68.8166 68.9427 68.8384 69.1806 68.8384C70.1562 68.8355 71.0949 68.4663 71.812 67.8034C72.5292 67.1405 72.9723 66.2325 73.0542 65.2578C73.1362 64.2832 72.8507 63.3131 72.2544 62.5394L55.8737 41.2879ZM49.5282 38.6092C49.8993 38.6096 50.2396 38.403 50.4108 38.0732C50.582 37.743 50.5558 37.345 50.3424 37.0407L42.2489 25.4488C41.9352 24.9979 41.316 24.8874 40.8662 25.2024C40.4165 25.517 40.3064 26.138 40.6205 26.589L48.714 38.1809C48.8991 38.4487 49.203 38.6088 49.5282 38.6093L49.5282 38.6092Z" fill="#1363DF"/>
<path d="M39.7176 91.8385H38.7216V84.7225H34.0416V91.8385H33.0456V83.8345H39.7176V91.8385ZM42.4165 91.8385H41.5525V86.0425H42.4525V90.4705L45.4885 86.0425H46.3765V91.8385H45.4765V87.3265L42.4165 91.8385ZM54.8696 86.0425H55.7696V91.0465H56.5136V93.3145H55.6136V91.8385H48.1736V86.0425H49.0736V91.0465H51.5216V86.0425H52.4216V91.0465H54.8696V86.0425ZM60.3638 91.9825C59.4998 91.9825 58.7918 91.7025 58.2398 91.1425C57.6878 90.5745 57.4118 89.8385 57.4118 88.9345C57.4118 88.0865 57.6838 87.3705 58.2278 86.7865C58.7718 86.1945 59.4518 85.8985 60.2678 85.8985C61.1238 85.8985 61.7998 86.1945 62.2958 86.7865C62.7998 87.3705 63.0518 88.1105 63.0518 89.0065V89.2345H58.3598C58.3998 89.8025 58.6078 90.2785 58.9838 90.6625C59.3598 91.0465 59.8478 91.2385 60.4478 91.2385C61.1678 91.2385 61.7638 90.9945 62.2358 90.5065L62.6678 91.0945C62.0758 91.6865 61.3078 91.9825 60.3638 91.9825ZM62.1638 88.5745C62.1558 88.0785 61.9878 87.6345 61.6598 87.2425C61.3318 86.8425 60.8638 86.6425 60.2558 86.6425C59.6798 86.6425 59.2238 86.8385 58.8878 87.2305C58.5598 87.6225 58.3838 88.0705 58.3598 88.5745H62.1638ZM67.7616 91.8385H64.5096V86.0425H67.7016C68.2056 86.0425 68.6016 86.1785 68.8896 86.4505C69.1856 86.7225 69.3336 87.0825 69.3336 87.5305C69.3336 87.8585 69.2416 88.1425 69.0576 88.3825C68.8816 88.6145 68.6616 88.7705 68.3976 88.8505C68.6936 88.9225 68.9416 89.0945 69.1416 89.3665C69.3496 89.6385 69.4536 89.9385 69.4536 90.2665C69.4536 90.7385 69.3016 91.1185 68.9976 91.4065C68.7016 91.6945 68.2896 91.8385 67.7616 91.8385ZM67.5816 91.0465C67.8696 91.0465 68.0976 90.9665 68.2656 90.8065C68.4336 90.6465 68.5176 90.4305 68.5176 90.1585C68.5176 89.9105 68.4336 89.6985 68.2656 89.5225C68.0976 89.3465 67.8696 89.2585 67.5816 89.2585H65.4096V91.0465H67.5816ZM67.5456 88.4665C67.8176 88.4665 68.0296 88.3945 68.1816 88.2505C68.3336 88.0985 68.4096 87.9025 68.4096 87.6625C68.4096 87.4065 68.3336 87.2065 68.1816 87.0625C68.0296 86.9105 67.8176 86.8345 67.5456 86.8345H65.4096V88.4665H67.5456ZM75.6781 91.8385H74.7781V91.1785C74.2901 91.7145 73.6501 91.9825 72.8581 91.9825C72.3221 91.9825 71.8501 91.8105 71.4421 91.4665C71.0341 91.1225 70.8301 90.6545 70.8301 90.0625C70.8301 89.4545 71.0301 88.9865 71.4301 88.6585C71.8381 88.3225 72.3141 88.1545 72.8581 88.1545C73.6821 88.1545 74.3221 88.4185 74.7781 88.9465V87.9025C74.7781 87.5185 74.6421 87.2185 74.3701 87.0025C74.0981 86.7865 73.7461 86.6785 73.3141 86.6785C72.6341 86.6785 72.0421 86.9465 71.5381 87.4825L71.1181 86.8585C71.7341 86.2185 72.5061 85.8985 73.4341 85.8985C74.0981 85.8985 74.6381 86.0585 75.0541 86.3785C75.4701 86.6985 75.6781 87.1905 75.6781 87.8545V91.8385ZM73.1821 91.3345C73.9021 91.3345 74.4341 91.0945 74.7781 90.6145V89.5225C74.4341 89.0425 73.9021 88.8025 73.1821 88.8025C72.7661 88.8025 72.4221 88.9225 72.1501 89.1625C71.8861 89.3945 71.7541 89.6985 71.7541 90.0745C71.7541 90.4425 71.8861 90.7465 72.1501 90.9865C72.4221 91.2185 72.7661 91.3345 73.1821 91.3345ZM78.3462 91.8385H77.2902L78.8382 89.5585C78.3982 89.5025 78.0382 89.3185 77.7582 89.0065C77.4862 88.6945 77.3502 88.2985 77.3502 87.8185C77.3502 87.3065 77.5142 86.8825 77.8422 86.5465C78.1702 86.2105 78.6182 86.0425 79.1862 86.0425H82.2462V91.8385H81.3462V89.5945H79.7622L78.3462 91.8385ZM79.2822 88.8025H81.3462V86.8345H79.2822C78.9702 86.8345 78.7222 86.9265 78.5382 87.1105C78.3622 87.2865 78.2742 87.5225 78.2742 87.8185C78.2742 88.1145 78.3622 88.3545 78.5382 88.5385C78.7142 88.7145 78.9622 88.8025 79.2822 88.8025Z" fill="black"/>
</svg>
