<svg width="116" height="116" viewBox="0 0 116 116" fill="none" xmlns="http://www.w3.org/2000/svg">
<rect x="0.74585" width="115.254" height="115.581" rx="8" fill="#F5F5F5"/>
<path d="M42.7305 35.9255L44.7689 35.2762C45.0451 35.1912 45.2572 34.9673 45.3316 34.68C45.406 34.403 45.3316 34.0945 45.1406 33.8814L43.5587 32.1566C42.8794 31.411 41.7221 30.9533 40.5326 30.9533C40.108 30.9533 39.7044 31.0172 39.3327 31.1345L37.2943 31.7838C37.0181 31.8688 36.8061 32.0927 36.7316 32.3801C36.6572 32.657 36.7316 32.9655 36.9226 33.1786L38.5045 34.9035C39.1838 35.649 40.3411 36.1067 41.5306 36.1067C41.9557 36.1063 42.3592 36.0424 42.7305 35.9255ZM39.7577 33.7533L39.0784 33.0077L39.8429 32.7627C40.0447 32.6988 40.2891 32.6669 40.533 32.6669C41.2338 32.6669 41.9558 32.9331 42.3059 33.3162L42.9852 34.0617L42.2207 34.3068C42.0189 34.3706 41.7853 34.4026 41.5306 34.4026C40.841 34.403 40.1083 34.1368 39.7577 33.7533Z" fill="#1363DF"/>
<path d="M49.5465 35.2866L51.5849 35.9359C51.9566 36.0528 52.3602 36.1171 52.7848 36.1171C53.9738 36.1171 55.1311 35.6594 55.8109 34.9139L57.3928 33.189C57.5838 32.9759 57.6582 32.6778 57.5838 32.3905C57.5093 32.1031 57.2973 31.89 57.0211 31.7942L54.9827 31.1449C54.611 31.028 54.2074 30.9745 53.7828 30.9745C52.5937 30.9745 51.4365 31.4322 50.7567 32.1777L49.1748 33.9026C48.9838 34.1157 48.9094 34.4138 48.9838 34.7012C49.0583 34.9674 49.2708 35.1908 49.5465 35.2866V35.2866ZM52.01 33.3172C52.3602 32.9341 53.0928 32.6679 53.7828 32.6679C54.0272 32.6679 54.2711 32.6998 54.4729 32.7637L55.2374 33.0087L54.5581 33.7543C54.2079 34.1374 53.4752 34.4035 52.7852 34.4035C52.5409 34.4035 52.2969 34.3716 52.0952 34.3078L51.3307 34.0627L52.01 33.3172Z" fill="#1363DF"/>
<path d="M51.3946 30.7628C51.4372 30.752 56.0345 29.2831 57.3828 31.306C57.5419 31.5511 57.8182 31.6891 58.0939 31.6891C58.2531 31.6891 58.423 31.6464 58.5611 31.5506C58.9539 31.2952 59.0602 30.7628 58.7947 30.3689C56.7138 27.2491 51.0973 29.0807 50.8529 29.1553C50.4068 29.3046 50.1628 29.7834 50.3112 30.2308C50.4709 30.6666 50.9484 30.9116 51.3945 30.7628L51.3946 30.7628Z" fill="#1363DF"/>
<path d="M36.9429 31.2946C38.0684 29.6016 41.6465 30.3256 42.9311 30.7514C43.3772 30.9007 43.8548 30.6556 44.0036 30.2082C44.1525 29.7608 43.9081 29.2819 43.462 29.1326C43.2284 29.058 37.6011 27.2163 35.5201 30.3463C35.2547 30.7402 35.361 31.2618 35.7538 31.528C35.9026 31.6238 36.0618 31.6665 36.221 31.6665C36.5079 31.6777 36.7734 31.5392 36.9429 31.2946L36.9429 31.2946Z" fill="#1363DF"/>
<path d="M54.1116 43.4642C54.2389 43.1449 54.1542 42.7721 53.9098 42.5271C53.6551 42.282 53.2834 42.229 52.9754 42.3675C51.3401 43.1233 49.2806 43.528 47.1571 43.528C45.0335 43.528 42.9737 43.113 41.3388 42.3675C41.0204 42.2182 40.6487 42.2825 40.4043 42.5271C40.1497 42.7721 40.0752 43.1341 40.2026 43.4642C42.0288 48.0745 44.5026 50.6087 47.1674 50.6087C49.833 50.6082 52.2857 48.0744 54.1115 43.4642H54.1116ZM47.1468 48.905C45.5756 48.905 43.9511 47.3717 42.5706 44.6355C43.9934 45.0294 45.5645 45.2426 47.1468 45.2426C48.7394 45.2426 50.3105 45.0294 51.723 44.6355C50.3424 47.3717 48.7287 48.905 47.1468 48.905Z" fill="#1363DF"/>
<path d="M83.66 42.8149C79.6152 38.2685 67.0654 31.0183 61.9895 31.0183C61.7559 31.0183 61.533 31.0291 61.3313 31.061C61.3631 29.2192 61.416 27.4517 61.586 25.7588C61.5967 25.6095 61.5752 25.4714 61.5223 25.3329C61.2142 24.609 60.3121 23.5654 56.1816 22.8095C53.6545 22.3517 50.4162 22.0963 47.0399 22.0963C44.1837 22.0963 34.7233 22.3198 32.8982 25.2268C32.8135 25.3653 32.7601 25.5357 32.7709 25.7061C32.8135 27.3882 32.792 29.1347 32.7601 30.9873C32.6862 36.4381 32.6014 42.0807 34.3317 47.1812C36.3381 53.1014 40.4579 57.1577 46.9455 59.5856C47.0411 59.6175 47.1473 59.6387 47.2428 59.6387C47.3383 59.6387 47.4446 59.6175 47.5401 59.5856C48.6126 59.1809 49.6103 58.734 50.5236 58.2654C51.1393 61.7044 52.7319 64.9518 55.3756 68.1676C55.503 68.3273 55.6837 68.4338 55.8855 68.4658C57.34 68.7108 58.752 68.8385 60.09 68.8385C65.1544 68.8385 69.4119 67.0925 73.1171 63.5043C76.3342 60.3953 78.7124 56.3494 81.006 52.4311C82.3121 50.2058 83.5541 48.0977 84.9132 46.2128C84.9979 46.0959 85.0513 45.9574 85.0724 45.8081C85.1782 44.9771 84.711 43.9977 83.6599 42.8157L83.66 42.8149ZM47.2429 57.8807C34.1412 52.8127 34.3111 41.7283 34.4706 31.0068C34.4917 29.25 34.5235 27.5782 34.4814 25.9598C35.5432 24.8631 40.0342 23.7984 47.0413 23.7984C50.3113 23.7984 53.4433 24.0435 55.8749 24.4904C58.7521 25.012 59.6229 25.6298 59.8668 25.896C59.6651 28.0468 59.6332 30.2721 59.6122 32.6039V32.6251V33.0828C59.5696 37.48 59.5377 41.9626 58.4231 45.988V45.9988C58.3912 46.1157 58.3594 46.233 58.3276 46.35C58.3276 46.3607 58.3168 46.3819 58.3168 46.3927C58.285 46.4992 58.2531 46.6058 58.2213 46.7227C58.2105 46.7438 58.2105 46.7654 58.2002 46.7866C58.1684 46.8931 58.1366 46.9889 58.1047 47.0955C58.094 47.1274 58.0837 47.1485 58.0729 47.1805C58.0411 47.2762 58.0092 47.3828 57.9666 47.4786C57.9559 47.5105 57.9456 47.5316 57.9348 47.5636C57.8819 47.7129 57.8182 47.8617 57.7649 48.011C57.733 48.0856 57.7119 48.1495 57.6801 48.2241C57.659 48.2668 57.6375 48.3199 57.6272 48.3626C57.5954 48.4476 57.5528 48.533 57.5209 48.618C57.4999 48.6607 57.4891 48.703 57.468 48.7349C57.4254 48.8199 57.3936 48.9161 57.3514 49.0011C57.3304 49.033 57.3196 49.0758 57.2985 49.1077C57.2559 49.2035 57.2138 49.2992 57.1604 49.395C57.1497 49.4269 57.1286 49.4481 57.1178 49.48C57.0649 49.5866 57.0116 49.6823 56.9587 49.7889C56.9479 49.81 56.9376 49.8316 56.9268 49.8528C56.8632 49.9697 56.7995 50.087 56.7358 50.1936C56.7358 50.2044 56.7251 50.2044 56.7251 50.2147C55.6525 52.11 54.1769 53.824 52.1489 55.3044C52.1381 55.3152 52.1278 55.3255 52.117 55.3255C52.0005 55.4105 51.8834 55.4851 51.7668 55.5706C51.735 55.5917 51.7139 55.6133 51.6821 55.6236C51.5866 55.6875 51.4803 55.7621 51.3741 55.826C51.3315 55.8579 51.2785 55.8898 51.236 55.911C51.1512 55.964 51.0768 56.0067 50.9916 56.0603C50.9172 56.103 50.8535 56.1452 50.779 56.188C49.7276 56.8062 48.5492 57.3705 47.2431 57.8814L47.2429 57.8807ZM79.5507 51.5666C75.0596 59.222 70.409 67.1332 60.1001 67.1332C58.9536 67.1332 57.743 67.0374 56.4902 66.8351C54.0056 63.7365 52.5619 60.6276 52.1055 57.3591C55.0572 55.4957 57.053 53.1957 58.4017 50.6512C58.4125 50.6404 58.4125 50.6193 58.4228 50.6085C58.4757 50.5019 58.5291 50.3953 58.582 50.2892C58.6138 50.2362 58.6349 50.1723 58.6667 50.1188C58.6986 50.0549 58.7304 49.9803 58.7622 49.9165C59.2613 48.8625 59.6859 47.7338 60.0258 46.5306C60.3123 45.5085 60.5356 44.4649 60.7051 43.4108C61.2678 44.4329 62.3721 45.3061 63.5294 45.5723L65.6104 46.0408C65.6741 46.0516 65.7377 46.0619 65.7911 46.0619H65.8018C66.2691 46.0619 66.6511 45.6788 66.6511 45.2103C66.6511 45.1253 66.6403 45.0399 66.6192 44.9652L66.131 42.7399C65.8229 41.377 64.4428 40.0568 62.9774 39.7375L61.1512 39.3329C61.1723 39.0667 61.183 38.8005 61.1938 38.5343C62.9986 38.0765 65.4409 40.2591 66.2794 41.2066C66.4493 41.3981 66.6829 41.4939 66.9165 41.4939C67.1183 41.4939 67.3201 41.4193 67.4793 41.2808C67.8294 40.9719 67.8613 40.4291 67.5537 40.0775C67.4048 39.9071 64.3047 36.4466 61.2682 36.7874C61.3001 35.5523 61.3108 34.3278 61.3211 33.1246V32.8691L61.353 32.8161C61.5018 32.7734 61.7032 32.7414 62.0004 32.7414C64.0177 32.7414 68.0204 34.2747 72.4375 36.7344C76.7057 39.1194 80.6236 41.9517 82.4073 43.964C83.1292 44.7734 83.3309 45.2522 83.3838 45.4758C82.0356 47.34 80.8362 49.4058 79.551 51.5668L79.5507 51.5666ZM61.8196 41.2071L62.6052 41.3775C63.4226 41.5587 64.3041 42.3784 64.4633 43.0916L64.6759 44.071L63.8903 43.9005C63.0729 43.7193 62.1914 42.8996 62.0322 42.1864L61.8196 41.2071Z" fill="#1363DF"/>
<path d="M76.5145 47.5633C75.75 46.7328 74.4972 46.1896 73.3188 46.1896C72.9686 46.1896 72.6395 46.2426 72.3422 46.3281L70.1124 47.0309C69.8362 47.1159 69.6241 47.3398 69.5497 47.6271C69.4752 47.9145 69.5497 48.2126 69.7407 48.4257L71.1845 50.0014C71.949 50.8427 73.2017 51.3751 74.3698 51.3751C74.72 51.3751 75.0491 51.322 75.3464 51.2366L77.5762 50.5338C77.8524 50.4488 78.0645 50.2249 78.1389 49.9375C78.2134 49.6502 78.1389 49.3521 77.9479 49.139L76.5145 47.5633ZM74.8478 49.6079C74.7097 49.6506 74.5505 49.6718 74.3806 49.6718C73.6797 49.6718 72.8834 49.3309 72.448 48.8521L71.9064 48.2558L72.8619 47.9577C73 47.915 73.1591 47.8938 73.3291 47.8938C74.0299 47.8938 74.8262 48.2347 75.272 48.7136L75.8136 49.3098L74.8478 49.6079Z" fill="#1363DF"/>
<path d="M73.9457 43.7624C73.4892 43.6666 73.0327 43.9647 72.9475 44.4225C72.852 44.8802 73.1493 45.3379 73.6058 45.4234C73.6484 45.4342 78.373 46.467 78.5214 48.8942C78.5532 49.3416 78.9249 49.6928 79.3706 49.6928H79.4235C79.8908 49.6609 80.2517 49.2562 80.2199 48.7877C79.9764 45.0397 74.19 43.8154 73.9456 43.7623L73.9457 43.7624Z" fill="#1363DF"/>
<path d="M61.8414 52.7065C59.7712 52.7065 57.3289 53.814 54.5793 55.9966C54.3031 56.2097 54.1973 56.5717 54.2928 56.9018C54.3883 57.2318 54.6856 57.4769 55.0255 57.5088C58.7202 57.8496 62.9565 60.3092 65.1011 63.3436C65.2603 63.567 65.5257 63.7055 65.7911 63.7055C65.8548 63.7055 65.9185 63.6947 65.9929 63.6844C66.3328 63.5994 66.5875 63.3224 66.6404 62.9816C67.2242 58.9567 66.757 55.9328 65.2921 54.2295C64.4316 53.2282 63.2323 52.7066 61.8414 52.7066L61.8414 52.7065ZM65.154 60.7666C63.0623 58.6051 60.1425 56.9122 57.223 56.1774C58.9855 55.0169 60.5675 54.4099 61.8413 54.4099C62.7542 54.4099 63.4551 54.7188 63.9966 55.347C64.8988 56.3906 65.2915 58.2752 65.1539 60.7667L65.154 60.7666Z" fill="#1363DF"/>
<path d="M12.3988 91.8385H11.4028V83.8345H14.6188C15.3948 83.8345 16.0068 84.0665 16.4548 84.5305C16.9028 84.9945 17.1268 85.5665 17.1268 86.2465C17.1268 86.9265 16.8988 87.4985 16.4428 87.9625C15.9948 88.4265 15.3868 88.6585 14.6188 88.6585H12.3988V91.8385ZM14.4988 87.7705C14.9708 87.7705 15.3548 87.6305 15.6508 87.3505C15.9468 87.0625 16.0948 86.6945 16.0948 86.2465C16.0948 85.7985 15.9468 85.4345 15.6508 85.1545C15.3548 84.8665 14.9708 84.7225 14.4988 84.7225H12.3988V87.7705H14.4988ZM22.6994 91.8385H21.7994V91.1785C21.3114 91.7145 20.6714 91.9825 19.8794 91.9825C19.3434 91.9825 18.8714 91.8105 18.4634 91.4665C18.0554 91.1225 17.8514 90.6545 17.8514 90.0625C17.8514 89.4545 18.0514 88.9865 18.4514 88.6585C18.8594 88.3225 19.3354 88.1545 19.8794 88.1545C20.7034 88.1545 21.3434 88.4185 21.7994 88.9465V87.9025C21.7994 87.5185 21.6634 87.2185 21.3914 87.0025C21.1194 86.7865 20.7674 86.6785 20.3354 86.6785C19.6554 86.6785 19.0634 86.9465 18.5594 87.4825L18.1394 86.8585C18.7554 86.2185 19.5274 85.8985 20.4554 85.8985C21.1194 85.8985 21.6594 86.0585 22.0754 86.3785C22.4914 86.6985 22.6994 87.1905 22.6994 87.8545V91.8385ZM20.2034 91.3345C20.9234 91.3345 21.4554 91.0945 21.7994 90.6145V89.5225C21.4554 89.0425 20.9234 88.8025 20.2034 88.8025C19.7874 88.8025 19.4434 88.9225 19.1714 89.1625C18.9074 89.3945 18.7754 89.6985 18.7754 90.0745C18.7754 90.4425 18.9074 90.7465 19.1714 90.9865C19.4434 91.2185 19.7874 91.3345 20.2034 91.3345ZM26.5555 91.9825C25.4435 91.9825 24.5715 91.6665 23.9395 91.0345L24.3835 90.4585C24.9275 90.9785 25.6515 91.2385 26.5555 91.2385C27.0755 91.2385 27.4875 91.1465 27.7915 90.9625C28.1035 90.7785 28.2595 90.5345 28.2595 90.2305C28.2595 89.5905 27.6515 89.2705 26.4355 89.2705H25.1395V88.5385H26.4355C26.9395 88.5385 27.3515 88.4585 27.6715 88.2985C27.9915 88.1305 28.1515 87.8865 28.1515 87.5665C28.1515 87.2945 27.9915 87.0745 27.6715 86.9065C27.3515 86.7305 26.9475 86.6425 26.4595 86.6425C25.6515 86.6425 25.0035 86.8905 24.5155 87.3865L24.0475 86.8345C24.6475 86.2185 25.4395 85.9105 26.4235 85.9105C27.2155 85.9025 27.8555 86.0385 28.3435 86.3185C28.8395 86.5905 29.0875 86.9705 29.0875 87.4585C29.0875 87.8585 28.9235 88.1825 28.5955 88.4305C28.2755 88.6785 27.9195 88.8265 27.5275 88.8745C27.9355 88.9065 28.3155 89.0425 28.6675 89.2825C29.0275 89.5225 29.2075 89.8585 29.2075 90.2905C29.2075 90.7865 28.9675 91.1945 28.4875 91.5145C28.0155 91.8265 27.3715 91.9825 26.5555 91.9825ZM33.9196 91.8385H30.6676V86.0425H33.8596C34.3636 86.0425 34.7596 86.1785 35.0476 86.4505C35.3436 86.7225 35.4916 87.0825 35.4916 87.5305C35.4916 87.8585 35.3996 88.1425 35.2156 88.3825C35.0396 88.6145 34.8196 88.7705 34.5556 88.8505C34.8516 88.9225 35.0996 89.0945 35.2996 89.3665C35.5076 89.6385 35.6116 89.9385 35.6116 90.2665C35.6116 90.7385 35.4596 91.1185 35.1556 91.4065C34.8596 91.6945 34.4476 91.8385 33.9196 91.8385ZM33.7396 91.0465C34.0276 91.0465 34.2556 90.9665 34.4236 90.8065C34.5916 90.6465 34.6756 90.4305 34.6756 90.1585C34.6756 89.9105 34.5916 89.6985 34.4236 89.5225C34.2556 89.3465 34.0276 89.2585 33.7396 89.2585H31.5676V91.0465H33.7396ZM33.7036 88.4665C33.9756 88.4665 34.1876 88.3945 34.3396 88.2505C34.4916 88.0985 34.5676 87.9025 34.5676 87.6625C34.5676 87.4065 34.4916 87.2065 34.3396 87.0625C34.1876 86.9105 33.9756 86.8345 33.7036 86.8345H31.5676V88.4665H33.7036ZM36.6281 91.9825V91.2385C36.9001 91.2385 37.1241 91.0585 37.3001 90.6985C37.4761 90.3385 37.6201 89.7385 37.7321 88.8985L38.1041 86.0425H42.1361V91.8385H41.2361V86.8345H38.8961L38.6321 89.0065C38.5041 90.0705 38.2801 90.8345 37.9601 91.2985C37.6401 91.7545 37.1961 91.9825 36.6281 91.9825ZM46.5492 91.9825C45.6852 91.9825 44.9772 91.7025 44.4252 91.1425C43.8732 90.5745 43.5972 89.8385 43.5972 88.9345C43.5972 88.0865 43.8692 87.3705 44.4132 86.7865C44.9572 86.1945 45.6372 85.8985 46.4532 85.8985C47.3092 85.8985 47.9852 86.1945 48.4812 86.7865C48.9852 87.3705 49.2372 88.1105 49.2372 89.0065V89.2345H44.5452C44.5852 89.8025 44.7932 90.2785 45.1692 90.6625C45.5452 91.0465 46.0332 91.2385 46.6332 91.2385C47.3532 91.2385 47.9492 90.9945 48.4212 90.5065L48.8532 91.0945C48.2612 91.6865 47.4932 91.9825 46.5492 91.9825ZM48.3492 88.5745C48.3412 88.0785 48.1732 87.6345 47.8452 87.2425C47.5172 86.8425 47.0492 86.6425 46.4412 86.6425C45.8652 86.6425 45.4092 86.8385 45.0732 87.2305C44.7452 87.6225 44.5692 88.0705 44.5452 88.5745H48.3492ZM55.7949 91.8385H54.6429L52.5549 89.2345L51.5949 90.1825V91.8385H50.6949V86.0425H51.5949V89.1265L54.6429 86.0425H55.7829L53.2149 88.6705L55.7949 91.8385ZM61.383 91.8385H60.483V91.1785C59.995 91.7145 59.355 91.9825 58.563 91.9825C58.027 91.9825 57.555 91.8105 57.147 91.4665C56.739 91.1225 56.535 90.6545 56.535 90.0625C56.535 89.4545 56.735 88.9865 57.135 88.6585C57.543 88.3225 58.019 88.1545 58.563 88.1545C59.387 88.1545 60.027 88.4185 60.483 88.9465V87.9025C60.483 87.5185 60.347 87.2185 60.075 87.0025C59.803 86.7865 59.451 86.6785 59.019 86.6785C58.339 86.6785 57.747 86.9465 57.243 87.4825L56.823 86.8585C57.439 86.2185 58.211 85.8985 59.139 85.8985C59.803 85.8985 60.343 86.0585 60.759 86.3785C61.175 86.6985 61.383 87.1905 61.383 87.8545V91.8385ZM58.887 91.3345C59.607 91.3345 60.139 91.0945 60.483 90.6145V89.5225C60.139 89.0425 59.607 88.8025 58.887 88.8025C58.471 88.8025 58.127 88.9225 57.855 89.1625C57.591 89.3945 57.459 89.6985 57.459 90.0745C57.459 90.4425 57.591 90.7465 57.855 90.9865C58.127 91.2185 58.471 91.3345 58.887 91.3345ZM65.1431 91.8385H64.2431V86.8345H62.5631V86.0425H66.8351V86.8345H65.1431V91.8385ZM70.6312 91.9825C69.7672 91.9825 69.0592 91.7025 68.5072 91.1425C67.9552 90.5745 67.6792 89.8385 67.6792 88.9345C67.6792 88.0865 67.9512 87.3705 68.4952 86.7865C69.0392 86.1945 69.7192 85.8985 70.5352 85.8985C71.3912 85.8985 72.0672 86.1945 72.5632 86.7865C73.0672 87.3705 73.3192 88.1105 73.3192 89.0065V89.2345H68.6272C68.6672 89.8025 68.8752 90.2785 69.2512 90.6625C69.6272 91.0465 70.1152 91.2385 70.7152 91.2385C71.4352 91.2385 72.0312 90.9945 72.5032 90.5065L72.9352 91.0945C72.3432 91.6865 71.5752 91.9825 70.6312 91.9825ZM72.4312 88.5745C72.4232 88.0785 72.2552 87.6345 71.9272 87.2425C71.5992 86.8425 71.1312 86.6425 70.5232 86.6425C69.9472 86.6425 69.4912 86.8385 69.1552 87.2305C68.8272 87.6225 68.6512 88.0705 68.6272 88.5745H72.4312ZM74.093 91.9825V91.2385C74.365 91.2385 74.589 91.0585 74.765 90.6985C74.941 90.3385 75.085 89.7385 75.197 88.8985L75.569 86.0425H79.601V91.8385H78.701V86.8345H76.361L76.097 89.0065C75.969 90.0705 75.745 90.8345 75.425 91.2985C75.105 91.7545 74.661 91.9825 74.093 91.9825ZM81.398 86.0425H82.298V88.2865H84.47C85.046 88.2865 85.494 88.4585 85.814 88.8025C86.134 89.1385 86.294 89.5585 86.294 90.0625C86.294 90.5665 86.13 90.9905 85.802 91.3345C85.482 91.6705 85.038 91.8385 84.47 91.8385H81.398V86.0425ZM84.374 89.0785H82.298V91.0465H84.374C84.694 91.0465 84.938 90.9585 85.106 90.7825C85.282 90.5985 85.37 90.3585 85.37 90.0625C85.37 89.7665 85.282 89.5305 85.106 89.3545C84.938 89.1705 84.694 89.0785 84.374 89.0785ZM88.5676 91.8385H87.6676V86.0425H88.5676V88.4545H91.5916V86.0425H92.4916V91.8385H91.5916V89.2465H88.5676V91.8385ZM98.8127 91.8385H97.9127V91.1785C97.4247 91.7145 96.7847 91.9825 95.9927 91.9825C95.4567 91.9825 94.9847 91.8105 94.5767 91.4665C94.1687 91.1225 93.9647 90.6545 93.9647 90.0625C93.9647 89.4545 94.1647 88.9865 94.5647 88.6585C94.9727 88.3225 95.4487 88.1545 95.9927 88.1545C96.8167 88.1545 97.4567 88.4185 97.9127 88.9465V87.9025C97.9127 87.5185 97.7767 87.2185 97.5047 87.0025C97.2327 86.7865 96.8807 86.6785 96.4487 86.6785C95.7687 86.6785 95.1767 86.9465 94.6727 87.4825L94.2527 86.8585C94.8687 86.2185 95.6407 85.8985 96.5687 85.8985C97.2327 85.8985 97.7727 86.0585 98.1887 86.3785C98.6047 86.6985 98.8127 87.1905 98.8127 87.8545V91.8385ZM96.3167 91.3345C97.0367 91.3345 97.5687 91.0945 97.9127 90.6145V89.5225C97.5687 89.0425 97.0367 88.8025 96.3167 88.8025C95.9007 88.8025 95.5567 88.9225 95.2847 89.1625C95.0207 89.3945 94.8887 89.6985 94.8887 90.0745C94.8887 90.4425 95.0207 90.7465 95.2847 90.9865C95.5567 91.2185 95.9007 91.3345 96.3167 91.3345ZM101.481 91.8385H100.425L101.973 89.5585C101.533 89.5025 101.173 89.3185 100.893 89.0065C100.621 88.6945 100.485 88.2985 100.485 87.8185C100.485 87.3065 100.649 86.8825 100.977 86.5465C101.305 86.2105 101.753 86.0425 102.321 86.0425H105.381V91.8385H104.481V89.5945H102.897L101.481 91.8385ZM102.417 88.8025H104.481V86.8345H102.417C102.105 86.8345 101.857 86.9265 101.673 87.1105C101.497 87.2865 101.409 87.5225 101.409 87.8185C101.409 88.1145 101.497 88.3545 101.673 88.5385C101.849 88.7145 102.097 88.8025 102.417 88.8025Z" fill="black"/>
</svg>
