<svg width="50" height="50" viewBox="0 0 50 50" fill="none" xmlns="http://www.w3.org/2000/svg">
<path d="M50 25C50 38.8071 38.8071 50 25 50C11.1929 50 0 38.8071 0 25C0 11.1929 11.1929 0 25 0C38.8071 0 50 11.1929 50 25Z" fill="white"/>
<path d="M24.9994 24.0322C25.3161 24.0322 25.6257 23.9382 25.889 23.7623C26.1524 23.5863 26.3576 23.3362 26.4789 23.0436C26.6001 22.751 26.6318 22.429 26.57 22.1183C26.5082 21.8077 26.3557 21.5224 26.1317 21.2984C25.9078 21.0744 25.6224 20.9219 25.3118 20.8601C25.0011 20.7983 24.6791 20.83 24.3865 20.9513C24.0939 21.0725 23.8438 21.2777 23.6678 21.5411C23.4919 21.8044 23.398 22.114 23.398 22.4308C23.398 22.8555 23.5667 23.2628 23.867 23.5631C24.1673 23.8634 24.5746 24.0322 24.9994 24.0322ZM24.4309 29.565C24.5053 29.64 24.5938 29.6996 24.6914 29.7403C24.789 29.7809 24.8937 29.8018 24.9994 29.8018C25.1051 29.8018 25.2097 29.7809 25.3073 29.7403C25.4049 29.6996 25.4934 29.64 25.5678 29.565L28.8427 26.2821C29.6033 25.5219 30.1214 24.5532 30.3314 23.4985C30.5414 22.4438 30.4339 21.3505 30.0225 20.3569C29.6111 19.3633 28.9143 18.514 28.0201 17.9165C27.126 17.3189 26.0748 17 24.9994 17C23.9239 17 22.8727 17.3189 21.9786 17.9165C21.0844 18.514 20.3876 19.3633 19.9762 20.3569C19.5648 21.3505 19.4573 22.4438 19.6673 23.4985C19.8773 24.5532 20.3954 25.5219 21.156 26.2821L24.4309 29.565ZM21.18 22.0624C21.2347 21.4915 21.4162 20.9401 21.7113 20.4483C22.0064 19.9565 22.4075 19.5369 22.8855 19.2199C23.5134 18.8077 24.2482 18.588 24.9994 18.588C25.7505 18.588 26.4853 18.8077 27.1132 19.2199C27.588 19.5358 27.9869 19.9529 28.2812 20.4413C28.5755 20.9297 28.758 21.4773 28.8154 22.0446C28.8728 22.612 28.8038 23.185 28.6133 23.7225C28.4228 24.26 28.1156 24.7486 27.7137 25.1531L24.9994 27.8675L22.285 25.1531C21.8826 24.7525 21.5747 24.2672 21.3836 23.7325C21.1924 23.1979 21.1229 22.6273 21.18 22.0624ZM30.6043 31.3986H19.3945C19.1821 31.3986 18.9784 31.483 18.8283 31.6331C18.6781 31.7833 18.5938 31.9869 18.5938 32.1993C18.5938 32.4117 18.6781 32.6153 18.8283 32.7655C18.9784 32.9156 19.1821 33 19.3945 33H30.6043C30.8166 33 31.0203 32.9156 31.1704 32.7655C31.3206 32.6153 31.405 32.4117 31.405 32.1993C31.405 31.9869 31.3206 31.7833 31.1704 31.6331C31.0203 31.483 30.8166 31.3986 30.6043 31.3986Z" fill="#1363DF"/>
</svg>
